<svg width="660" height="514" viewBox="0 0 660 514" fill="none" xmlns="http://www.w3.org/2000/svg">
<g filter="url(#filter0_d_2070_1230)">
<path d="M50 62C50 55.3726 55.3726 50 62 50H278C284.627 50 290 55.3726 290 62V410C290 416.627 284.627 422 278 422H62C55.3726 422 50 416.627 50 410V62Z" fill="white"/>
<path d="M258.344 83L263.365 78.8664C263.734 78.5624 264.267 78.5624 264.636 78.8664L269.657 83" stroke="#999999" stroke-width="2" stroke-linecap="round"/>
<path d="M122.064 73.616V75.232H126.608V85.472C126.608 85.856 126.416 86.064 126.032 86.064C125.408 86.064 124.768 86.016 124.096 85.952L124.464 87.584H126.608C127.728 87.584 128.304 87.008 128.304 85.888V75.232H131.488V73.616H122.064ZM118.848 72.96L117.664 74.112C118.8 74.944 119.68 75.728 120.288 76.464L121.44 75.296C120.72 74.528 119.856 73.744 118.848 72.96ZM116.624 77.584V79.184H118.816V84.864C118.816 85.2 118.672 85.488 118.384 85.728L119.024 87.232C120.256 86.48 121.424 85.632 122.512 84.672L122.064 82.928C121.488 83.456 120.944 83.92 120.432 84.336V77.584H116.624ZM134.256 75.232V82.192H139.168V83.376H132.832V84.944H139.168V87.744H140.832V84.944H147.168V83.376H140.832V82.192H145.744V75.232H142.896C143.312 74.656 143.712 74 144.064 73.28L142.448 72.704C142.08 73.6 141.648 74.432 141.152 75.232H138.048L138.992 74.752C138.512 74.032 138 73.376 137.456 72.784L136.064 73.456C136.544 73.984 137.008 74.576 137.456 75.232H134.256ZM144.128 80.72H140.832V79.392H144.128V80.72ZM139.168 80.72H135.872V79.392H139.168V80.72ZM135.872 77.984V76.688H139.168V77.984H135.872ZM140.832 76.688H144.128V77.984H140.832V76.688ZM151.872 72.704C151.136 75.168 149.984 77.312 148.448 79.12L148.992 80.912C149.472 80.4 149.936 79.856 150.368 79.312V87.696H152.064V76.72C152.64 75.68 153.104 74.592 153.456 73.456L151.872 72.704ZM154.032 73.504V78.912H157.088V80.176H152.832V81.808H155.632C154.784 83.28 153.712 84.464 152.4 85.392L153.344 86.896C154.784 85.68 156 83.984 156.96 81.808H157.088V87.68H158.752V81.808H158.864C159.792 83.824 160.976 85.52 162.4 86.88L163.488 85.424C162.08 84.384 160.992 83.184 160.208 81.808H163.168V80.176H158.752V78.912H161.84V73.504H154.032ZM160.208 77.312H155.664V75.104H160.208V77.312ZM166.256 75.232V82.192H171.168V83.376H164.832V84.944H171.168V87.744H172.832V84.944H179.168V83.376H172.832V82.192H177.744V75.232H174.896C175.312 74.656 175.712 74 176.064 73.28L174.448 72.704C174.08 73.6 173.648 74.432 173.152 75.232H170.048L170.992 74.752C170.512 74.032 170 73.376 169.456 72.784L168.064 73.456C168.544 73.984 169.008 74.576 169.456 75.232H166.256ZM176.128 80.72H172.832V79.392H176.128V80.72ZM171.168 80.72H167.872V79.392H171.168V80.72ZM167.872 77.984V76.688H171.168V77.984H167.872ZM172.832 76.688H176.128V77.984H172.832V76.688Z" fill="#333333"/>
<path d="M85.5 74C85.5 73.4477 85.9477 73 86.5 73H99.5C100.052 73 100.5 73.4477 100.5 74V87C100.5 87.5523 100.052 88 99.5 88H86.5C85.9477 88 85.5 87.5523 85.5 87V74Z" stroke="#333333" stroke-width="2"/>
<path d="M90 70.5H96L98 72.5H88L90 70.5Z" fill="#333333"/>
<path opacity="0.6" d="M90 80.2427L92.1213 82.364L96.364 78.1214" stroke="#586482" stroke-width="2" stroke-linecap="round" stroke-linejoin="round"/>
<path d="M121.12 130.52C120.608 129.816 119.52 128.728 118.672 127.944L117.856 128.696C118.72 129.512 119.776 130.632 120.272 131.368L121.12 130.52ZM120.704 139.352V132.616H116.848V133.752H119.552V139.448C119.552 140.152 119.008 140.632 118.704 140.824C118.912 141.08 119.2 141.544 119.312 141.832C119.568 141.512 120.048 141.192 123.376 138.872C123.248 138.632 123.104 138.136 123.024 137.816L120.704 139.352ZM131.296 128.968H122.352V130.136H127.248V140.472C127.248 140.776 127.12 140.872 126.816 140.888C126.48 140.904 125.312 140.92 124.144 140.872C124.352 141.192 124.56 141.784 124.624 142.136C126.128 142.136 127.12 142.104 127.696 141.896C128.272 141.704 128.464 141.288 128.464 140.488V130.136H131.296V128.968ZM135.584 135.736V134.024H139.36V135.736H135.584ZM135.584 131.384H139.36V133.064H135.584V131.384ZM144.528 133.064H140.56V131.384H144.528V133.064ZM144.528 135.736H140.56V134.024H144.528V135.736ZM147.104 138.264H140.56V136.744H145.728V130.376H143.056C143.552 129.704 144.128 128.872 144.592 128.12L143.328 127.688C142.944 128.488 142.288 129.608 141.728 130.376H137.872L138.528 130.04C138.208 129.384 137.472 128.408 136.8 127.688L135.808 128.168C136.384 128.824 137.008 129.736 137.36 130.376H134.416V136.744H139.36V138.264H132.912V139.368H139.36V142.216H140.56V139.368H147.104V138.264ZM160.288 139.208V140.76H152.784V139.208H160.288ZM159.264 134.92V136.28H152.784V134.92H159.264ZM152.784 137.192H160.432V134.008H151.664V142.232H152.784V141.688H160.288V142.2H161.456V138.28H152.784V137.192ZM163.264 128.824H157.84C158.032 128.504 158.192 128.152 158.336 127.816L157.2 127.544C156.88 128.344 156.384 129.096 155.792 129.752V128.824H151.6C151.776 128.504 151.936 128.168 152.064 127.832L150.96 127.544C150.48 128.792 149.616 130.04 148.656 130.872C148.944 131.016 149.408 131.336 149.632 131.512C150.096 131.048 150.576 130.472 151.008 129.816H151.696C152 130.376 152.32 131.016 152.448 131.448L153.504 131.128C153.392 130.776 153.152 130.28 152.88 129.816H155.728C155.424 130.152 155.088 130.44 154.736 130.696C154.912 130.776 155.168 130.92 155.392 131.064V132.072H149.36V135.064H150.48V133.016H161.6V135.064H162.752V132.072H156.528V130.824H156.288C156.592 130.52 156.896 130.184 157.184 129.816H158.464C158.912 130.376 159.36 131.032 159.536 131.496L160.624 131.128C160.448 130.76 160.112 130.264 159.76 129.816H163.264V128.824ZM169.648 137.784L167.904 138.36V134.392H169.504V133.288H167.904V129.816H169.744V128.696H164.784V129.816H166.768V133.288H164.96V134.392H166.768V138.712C165.952 138.984 165.216 139.208 164.624 139.384L164.896 140.584C166.32 140.12 168.144 139.496 169.856 138.92L169.648 137.784ZM171.616 132.392H174.048V134.424H171.616V132.392ZM171.616 129.384H174.048V131.4H171.616V129.384ZM177.52 131.4H175.072V129.384H177.52V131.4ZM177.52 134.424H175.072V132.392H177.52V134.424ZM175.168 140.616V138.424H178.896V137.336H175.168V135.464H178.656V128.344H170.528V135.464H173.968V137.336H170.336V138.424H173.968V140.616H169.104V141.704H179.408V140.616H175.168Z" fill="#333333"/>
<rect x="50" y="162" width="240" height="52" fill="#F7F7F9"/>
<path d="M120.448 179.656C119.536 182.072 118 184.44 116.416 185.96C116.624 186.232 116.96 186.856 117.088 187.112C117.664 186.52 118.256 185.832 118.8 185.064V194.184H119.936V183.32C120.56 182.28 121.104 181.144 121.568 179.992L120.448 179.656ZM123.216 181.432H129.152V184.36H123.216V181.432ZM131.216 188.488V187.4H126.736V185.416H130.336V180.36H122.096V185.416H125.552V187.4H120.912V188.488H124.864C123.792 190.184 122.096 191.768 120.448 192.584C120.72 192.808 121.072 193.24 121.28 193.528C122.832 192.632 124.432 191.032 125.552 189.272V194.232H126.736V189.224C127.824 190.968 129.36 192.632 130.784 193.56C130.992 193.256 131.376 192.824 131.632 192.616C130.096 191.784 128.48 190.168 127.424 188.488H131.216ZM135.584 187.736V186.024H139.36V187.736H135.584ZM135.584 183.384H139.36V185.064H135.584V183.384ZM144.528 185.064H140.56V183.384H144.528V185.064ZM144.528 187.736H140.56V186.024H144.528V187.736ZM147.104 190.264H140.56V188.744H145.728V182.376H143.056C143.552 181.704 144.128 180.872 144.592 180.12L143.328 179.688C142.944 180.488 142.288 181.608 141.728 182.376H137.872L138.528 182.04C138.208 181.384 137.472 180.408 136.8 179.688L135.808 180.168C136.384 180.824 137.008 181.736 137.36 182.376H134.416V188.744H139.36V190.264H132.912V191.368H139.36V194.216H140.56V191.368H147.104V190.264ZM160.288 191.208V192.76H152.784V191.208H160.288ZM159.264 186.92V188.28H152.784V186.92H159.264ZM152.784 189.192H160.432V186.008H151.664V194.232H152.784V193.688H160.288V194.2H161.456V190.28H152.784V189.192ZM163.264 180.824H157.84C158.032 180.504 158.192 180.152 158.336 179.816L157.2 179.544C156.88 180.344 156.384 181.096 155.792 181.752V180.824H151.6C151.776 180.504 151.936 180.168 152.064 179.832L150.96 179.544C150.48 180.792 149.616 182.04 148.656 182.872C148.944 183.016 149.408 183.336 149.632 183.512C150.096 183.048 150.576 182.472 151.008 181.816H151.696C152 182.376 152.32 183.016 152.448 183.448L153.504 183.128C153.392 182.776 153.152 182.28 152.88 181.816H155.728C155.424 182.152 155.088 182.44 154.736 182.696C154.912 182.776 155.168 182.92 155.392 183.064V184.072H149.36V187.064H150.48V185.016H161.6V187.064H162.752V184.072H156.528V182.824H156.288C156.592 182.52 156.896 182.184 157.184 181.816H158.464C158.912 182.376 159.36 183.032 159.536 183.496L160.624 183.128C160.448 182.76 160.112 182.264 159.76 181.816H163.264V180.824ZM169.648 189.784L167.904 190.36V186.392H169.504V185.288H167.904V181.816H169.744V180.696H164.784V181.816H166.768V185.288H164.96V186.392H166.768V190.712C165.952 190.984 165.216 191.208 164.624 191.384L164.896 192.584C166.32 192.12 168.144 191.496 169.856 190.92L169.648 189.784ZM171.616 184.392H174.048V186.424H171.616V184.392ZM171.616 181.384H174.048V183.4H171.616V181.384ZM177.52 183.4H175.072V181.384H177.52V183.4ZM177.52 186.424H175.072V184.392H177.52V186.424ZM175.168 192.616V190.424H178.896V189.336H175.168V187.464H178.656V180.344H170.528V187.464H173.968V189.336H170.336V190.424H173.968V192.616H169.104V193.704H179.408V192.616H175.168Z" fill="#333333"/>
<path d="M129.824 238.696C130.208 237.944 130.608 236.744 130.944 235.688L130.192 235.48L130 235.528H127.056V234.104H130.112V233.096H127.056V231.624H125.888V233.096H123.008V234.104H125.888V235.528H122.4V236.568H129.584C129.36 237.256 129.088 237.944 128.88 238.44L129.824 238.696ZM126.112 238.584C125.696 238.152 124.832 237.576 124.128 237.192L123.584 237.768C124.288 238.184 125.12 238.792 125.52 239.256L126.112 238.584ZM122.416 239.208C123.152 239.64 124.032 240.296 124.448 240.76L125.04 240.072C124.608 239.624 123.728 239.016 123.008 238.6L122.416 239.208ZM118.832 240.344C119.952 238.952 121.04 237.24 121.968 235.528L121.04 234.984C120.768 235.592 120.416 236.184 120.08 236.776L118.192 236.968C119.136 235.576 120.048 233.816 120.768 232.136L119.728 231.64C119.088 233.576 117.92 235.656 117.568 236.2C117.216 236.744 116.928 237.112 116.656 237.176C116.8 237.48 116.96 238.008 117.024 238.248C117.248 238.136 117.632 238.04 119.456 237.784C118.8 238.824 118.208 239.656 117.92 239.976C117.456 240.584 117.104 240.984 116.784 241.048C116.896 241.336 117.072 241.832 117.12 242.056C117.44 241.848 117.952 241.656 121.664 240.648C121.632 240.424 121.6 239.96 121.6 239.672L118.832 240.344ZM121.584 242.344C119.792 242.984 117.952 243.656 116.736 244.024L117.008 245.144C118.368 244.632 120.112 243.976 121.776 243.304L121.584 242.344ZM130.96 242.024V240.968H127.312C127.44 240.328 127.472 239.704 127.472 239.096V237.192H126.352V239.08C126.352 239.688 126.32 240.312 126.16 240.968H122.096V242.024H125.792C125.2 243.224 124.048 244.424 121.792 245.384C122.032 245.576 122.352 245.992 122.496 246.264C125.2 245.08 126.464 243.56 127.024 242.024H130.96ZM126.992 243.272C128.256 244.152 129.776 245.432 130.496 246.264L131.248 245.512C130.512 244.68 128.96 243.464 127.728 242.632L126.992 243.272ZM136.448 231.656C135.536 234.072 134 236.44 132.416 237.96C132.624 238.232 132.96 238.856 133.088 239.112C133.664 238.52 134.256 237.832 134.8 237.064V246.184H135.936V235.32C136.56 234.28 137.104 233.144 137.568 231.992L136.448 231.656ZM139.216 233.432H145.152V236.36H139.216V233.432ZM147.216 240.488V239.4H142.736V237.416H146.336V232.36H138.096V237.416H141.552V239.4H136.912V240.488H140.864C139.792 242.184 138.096 243.768 136.448 244.584C136.72 244.808 137.072 245.24 137.28 245.528C138.832 244.632 140.432 243.032 141.552 241.272V246.232H142.736V241.224C143.824 242.968 145.36 244.632 146.784 245.56C146.992 245.256 147.376 244.824 147.632 244.616C146.096 243.784 144.48 242.168 143.424 240.488H147.216ZM160.288 243.208V244.76H152.784V243.208H160.288ZM159.264 238.92V240.28H152.784V238.92H159.264ZM152.784 241.192H160.432V238.008H151.664V246.232H152.784V245.688H160.288V246.2H161.456V242.28H152.784V241.192ZM163.264 232.824H157.84C158.032 232.504 158.192 232.152 158.336 231.816L157.2 231.544C156.88 232.344 156.384 233.096 155.792 233.752V232.824H151.6C151.776 232.504 151.936 232.168 152.064 231.832L150.96 231.544C150.48 232.792 149.616 234.04 148.656 234.872C148.944 235.016 149.408 235.336 149.632 235.512C150.096 235.048 150.576 234.472 151.008 233.816H151.696C152 234.376 152.32 235.016 152.448 235.448L153.504 235.128C153.392 234.776 153.152 234.28 152.88 233.816H155.728C155.424 234.152 155.088 234.44 154.736 234.696C154.912 234.776 155.168 234.92 155.392 235.064V236.072H149.36V239.064H150.48V237.016H161.6V239.064H162.752V236.072H156.528V234.824H156.288C156.592 234.52 156.896 234.184 157.184 233.816H158.464C158.912 234.376 159.36 235.032 159.536 235.496L160.624 235.128C160.448 234.76 160.112 234.264 159.76 233.816H163.264V232.824ZM169.648 241.784L167.904 242.36V238.392H169.504V237.288H167.904V233.816H169.744V232.696H164.784V233.816H166.768V237.288H164.96V238.392H166.768V242.712C165.952 242.984 165.216 243.208 164.624 243.384L164.896 244.584C166.32 244.12 168.144 243.496 169.856 242.92L169.648 241.784ZM171.616 236.392H174.048V238.424H171.616V236.392ZM171.616 233.384H174.048V235.4H171.616V233.384ZM177.52 235.4H175.072V233.384H177.52V235.4ZM177.52 238.424H175.072V236.392H177.52V238.424ZM175.168 244.616V242.424H178.896V241.336H175.168V239.464H178.656V232.344H170.528V239.464H173.968V241.336H170.336V242.424H173.968V244.616H169.104V245.704H179.408V244.616H175.168Z" fill="#333333"/>
<path d="M129.824 291.696C130.208 290.944 130.608 289.744 130.944 288.688L130.192 288.48L130 288.528H127.056V287.104H130.112V286.096H127.056V284.624H125.888V286.096H123.008V287.104H125.888V288.528H122.4V289.568H129.584C129.36 290.256 129.088 290.944 128.88 291.44L129.824 291.696ZM126.112 291.584C125.696 291.152 124.832 290.576 124.128 290.192L123.584 290.768C124.288 291.184 125.12 291.792 125.52 292.256L126.112 291.584ZM122.416 292.208C123.152 292.64 124.032 293.296 124.448 293.76L125.04 293.072C124.608 292.624 123.728 292.016 123.008 291.6L122.416 292.208ZM118.832 293.344C119.952 291.952 121.04 290.24 121.968 288.528L121.04 287.984C120.768 288.592 120.416 289.184 120.08 289.776L118.192 289.968C119.136 288.576 120.048 286.816 120.768 285.136L119.728 284.64C119.088 286.576 117.92 288.656 117.568 289.2C117.216 289.744 116.928 290.112 116.656 290.176C116.8 290.48 116.96 291.008 117.024 291.248C117.248 291.136 117.632 291.04 119.456 290.784C118.8 291.824 118.208 292.656 117.92 292.976C117.456 293.584 117.104 293.984 116.784 294.048C116.896 294.336 117.072 294.832 117.12 295.056C117.44 294.848 117.952 294.656 121.664 293.648C121.632 293.424 121.6 292.96 121.6 292.672L118.832 293.344ZM121.584 295.344C119.792 295.984 117.952 296.656 116.736 297.024L117.008 298.144C118.368 297.632 120.112 296.976 121.776 296.304L121.584 295.344ZM130.96 295.024V293.968H127.312C127.44 293.328 127.472 292.704 127.472 292.096V290.192H126.352V292.08C126.352 292.688 126.32 293.312 126.16 293.968H122.096V295.024H125.792C125.2 296.224 124.048 297.424 121.792 298.384C122.032 298.576 122.352 298.992 122.496 299.264C125.2 298.08 126.464 296.56 127.024 295.024H130.96ZM126.992 296.272C128.256 297.152 129.776 298.432 130.496 299.264L131.248 298.512C130.512 297.68 128.96 296.464 127.728 295.632L126.992 296.272ZM135.312 292.688H138.208V294.288H135.312V292.688ZM138.208 287.792V289.2H135.312V287.792H138.208ZM135.312 290.16H138.208V291.728H135.312V290.16ZM140.48 294.288H139.312V287.792H140.48V286.72H139.312V284.8H138.208V286.72H135.312V284.8H134.224V286.72H132.88V287.792H134.224V294.288H132.672V295.36H140.48V294.288ZM134.88 295.696C134.4 296.752 133.568 297.824 132.688 298.544C132.976 298.704 133.424 299.04 133.648 299.232C134.528 298.448 135.44 297.232 136.016 296L134.88 295.696ZM137.152 296.192C137.792 296.944 138.512 297.984 138.8 298.624L139.76 298.064C139.456 297.408 138.72 296.416 138.08 295.696L137.152 296.192ZM142.352 292.768C142.368 292.224 142.384 291.68 142.384 291.184V290.112H145.648V292.768H142.352ZM145.648 286.496V289.04H142.384V286.496H145.648ZM146.8 285.408H141.264V291.184C141.264 293.472 141.136 296.512 139.808 298.624C140.08 298.72 140.56 299.088 140.752 299.312C141.712 297.776 142.112 295.744 142.272 293.84H145.648V297.68C145.648 297.936 145.552 298.016 145.312 298.016C145.088 298.032 144.288 298.032 143.44 298.016C143.584 298.32 143.76 298.832 143.808 299.168C144.992 299.168 145.728 299.136 146.192 298.944C146.624 298.752 146.8 298.4 146.8 297.696V285.408ZM160.288 296.208V297.76H152.784V296.208H160.288ZM159.264 291.92V293.28H152.784V291.92H159.264ZM152.784 294.192H160.432V291.008H151.664V299.232H152.784V298.688H160.288V299.2H161.456V295.28H152.784V294.192ZM163.264 285.824H157.84C158.032 285.504 158.192 285.152 158.336 284.816L157.2 284.544C156.88 285.344 156.384 286.096 155.792 286.752V285.824H151.6C151.776 285.504 151.936 285.168 152.064 284.832L150.96 284.544C150.48 285.792 149.616 287.04 148.656 287.872C148.944 288.016 149.408 288.336 149.632 288.512C150.096 288.048 150.576 287.472 151.008 286.816H151.696C152 287.376 152.32 288.016 152.448 288.448L153.504 288.128C153.392 287.776 153.152 287.28 152.88 286.816H155.728C155.424 287.152 155.088 287.44 154.736 287.696C154.912 287.776 155.168 287.92 155.392 288.064V289.072H149.36V292.064H150.48V290.016H161.6V292.064H162.752V289.072H156.528V287.824H156.288C156.592 287.52 156.896 287.184 157.184 286.816H158.464C158.912 287.376 159.36 288.032 159.536 288.496L160.624 288.128C160.448 287.76 160.112 287.264 159.76 286.816H163.264V285.824ZM169.648 294.784L167.904 295.36V291.392H169.504V290.288H167.904V286.816H169.744V285.696H164.784V286.816H166.768V290.288H164.96V291.392H166.768V295.712C165.952 295.984 165.216 296.208 164.624 296.384L164.896 297.584C166.32 297.12 168.144 296.496 169.856 295.92L169.648 294.784ZM171.616 289.392H174.048V291.424H171.616V289.392ZM171.616 286.384H174.048V288.4H171.616V286.384ZM177.52 288.4H175.072V286.384H177.52V288.4ZM177.52 291.424H175.072V289.392H177.52V291.424ZM175.168 297.616V295.424H178.896V294.336H175.168V292.464H178.656V285.344H170.528V292.464H173.968V294.336H170.336V295.424H173.968V297.616H169.104V298.704H179.408V297.616H175.168Z" fill="#333333"/>
<path d="M125.888 345.664H122.016V342.016H125.888V345.664ZM120.88 340.944V346.72H127.056V340.944H120.88ZM118.576 349.232V338.464H129.376V349.232H118.576ZM117.376 337.28V351.216H118.576V350.352H129.376V351.216H130.64V337.28H117.376ZM137.664 343.568L135.968 344.096V341.072H137.6V339.968H135.968V336.624H134.832V339.968H132.832V341.072H134.832V344.448C133.984 344.688 133.216 344.928 132.592 345.088L132.896 346.24L134.832 345.616V349.792C134.832 350.016 134.752 350.08 134.544 350.08C134.368 350.08 133.744 350.08 133.056 350.064C133.216 350.4 133.36 350.896 133.408 351.216C134.432 351.216 135.04 351.168 135.408 350.976C135.824 350.768 135.968 350.448 135.968 349.792V345.248C136.592 345.056 137.216 344.848 137.824 344.64L137.664 343.568ZM141.568 340.032C141.584 338.96 141.584 337.824 141.568 336.592L140.4 336.608C140.432 337.84 140.448 338.96 140.432 340.032H137.984V341.12H140.4C140.368 342.208 140.288 343.2 140.144 344.112C139.632 343.808 139.12 343.536 138.64 343.28L137.984 344.096C138.592 344.432 139.28 344.832 139.936 345.232C139.408 347.472 138.384 349.136 136.416 350.304C136.688 350.528 137.12 351.04 137.264 351.28C139.28 349.92 140.368 348.192 140.96 345.872C141.808 346.432 142.576 346.96 143.088 347.392L143.792 346.448C143.168 345.968 142.208 345.328 141.184 344.72C141.376 343.648 141.488 342.448 141.536 341.12H143.968C143.904 347.456 143.776 351.216 145.84 351.216C146.832 351.216 147.216 350.624 147.344 348.496C147.056 348.384 146.624 348.176 146.368 347.952C146.304 349.552 146.176 350.08 145.904 350.08C144.976 350.08 145.024 346.624 145.184 340.032H141.568ZM157.888 345.664H154.016V342.016H157.888V345.664ZM152.88 340.944V346.72H159.056V340.944H152.88ZM150.576 349.232V338.464H161.376V349.232H150.576ZM149.376 337.28V351.216H150.576V350.352H161.376V351.216H162.64V337.28H149.376ZM175.408 339.008C175.248 338.416 174.88 337.408 174.592 336.656L173.472 336.944C173.76 337.728 174.08 338.768 174.224 339.376L175.408 339.008ZM169.152 339.184C168.656 338.592 167.616 337.6 166.88 336.88L166.064 337.6C166.816 338.352 167.808 339.392 168.288 340.016L169.152 339.184ZM168.416 347.984V341.584H164.8V342.736H167.248V348.032C167.248 348.752 166.688 349.312 166.352 349.52C166.576 349.728 166.96 350.224 167.088 350.496C167.312 350.16 167.712 349.792 170.592 347.632C170.48 347.424 170.304 347.008 170.224 346.688L168.416 347.984ZM179.2 340.56V339.408H170V340.56H172.32C172.24 344.56 171.984 348.368 169.44 350.432C169.728 350.608 170.096 350.992 170.288 351.264C172.272 349.6 173.008 346.976 173.296 344.016H176.848C176.672 347.952 176.448 349.456 176.128 349.824C175.984 350 175.824 350.032 175.552 350.016C175.248 350.016 174.464 350.016 173.648 349.936C173.84 350.256 173.952 350.72 173.968 351.072C174.784 351.12 175.6 351.136 176.048 351.088C176.512 351.04 176.848 350.928 177.136 350.56C177.632 349.984 177.824 348.272 178.032 343.456C178.032 343.296 178.048 342.896 178.048 342.896H173.392C173.44 342.128 173.472 341.36 173.488 340.56H179.2Z" fill="#333333"/>
<path d="M121.024 396.96H126.944V398.704H121.024V396.96ZM126.944 391.6V393.184H121.024V391.6H126.944ZM121.024 394.208H126.944V395.936H121.024V394.208ZM131.056 398.704H128.128V391.6H130.688V390.48H128.128V388.656H126.944V390.48H121.024V388.656H119.856V390.48H117.376V391.6H119.856V398.704H116.928V399.808H131.072L131.056 398.704ZM121.792 400.096C120.672 400.864 118.496 401.776 116.768 402.288C117.024 402.544 117.376 402.944 117.552 403.2C119.264 402.624 121.424 401.712 122.848 400.832L121.792 400.096ZM125.184 400.928C127.024 401.616 128.928 402.496 130.048 403.168L131.12 402.368C129.888 401.712 127.856 400.832 125.984 400.176L125.184 400.928ZM136.304 388.672C135.408 391.104 133.92 393.488 132.352 395.024C132.56 395.28 132.896 395.888 133.024 396.144C133.568 395.584 134.112 394.928 134.608 394.224V403.2H135.776V392.4C136.4 391.312 136.944 390.16 137.392 389.008L136.304 388.672ZM140.896 401.936C139.76 401.936 139.552 401.728 139.552 400.816V395.184L141.888 394.256V399.68H143.024V393.808L145.52 392.832C145.504 395.328 145.472 397.008 145.344 397.44C145.248 397.856 145.088 397.92 144.8 397.92C144.592 397.92 144.016 397.92 143.584 397.888C143.728 398.176 143.84 398.656 143.872 399.008C144.352 399.024 145.056 399.008 145.488 398.896C145.984 398.768 146.32 398.464 146.448 397.728C146.592 397.056 146.64 394.752 146.64 391.872L146.688 391.664L145.872 391.328L145.664 391.504L145.504 391.648L143.024 392.608V388.64H141.888V393.024L139.552 393.936V390.192H138.384V394.4L136.368 395.184L136.832 396.224L138.384 395.616V400.816C138.384 402.56 138.944 403.008 140.848 403.008H145.024C146.784 403.008 147.152 402.304 147.36 400.112C147.008 400.032 146.544 399.824 146.256 399.616C146.112 401.504 145.952 401.936 144.976 401.936H140.896ZM152.448 388.656C151.536 391.072 150 393.44 148.416 394.96C148.624 395.232 148.96 395.856 149.088 396.112C149.664 395.52 150.256 394.832 150.8 394.064V403.184H151.936V392.32C152.56 391.28 153.104 390.144 153.568 388.992L152.448 388.656ZM155.216 390.432H161.152V393.36H155.216V390.432ZM163.216 397.488V396.4H158.736V394.416H162.336V389.36H154.096V394.416H157.552V396.4H152.912V397.488H156.864C155.792 399.184 154.096 400.768 152.448 401.584C152.72 401.808 153.072 402.24 153.28 402.528C154.832 401.632 156.432 400.032 157.552 398.272V403.232H158.736V398.224C159.824 399.968 161.36 401.632 162.784 402.56C162.992 402.256 163.376 401.824 163.632 401.616C162.096 400.784 160.48 399.168 159.424 397.488H163.216ZM167.584 396.736V395.024H171.36V396.736H167.584ZM167.584 392.384H171.36V394.064H167.584V392.384ZM176.528 394.064H172.56V392.384H176.528V394.064ZM176.528 396.736H172.56V395.024H176.528V396.736ZM179.104 399.264H172.56V397.744H177.728V391.376H175.056C175.552 390.704 176.128 389.872 176.592 389.12L175.328 388.688C174.944 389.488 174.288 390.608 173.728 391.376H169.872L170.528 391.04C170.208 390.384 169.472 389.408 168.8 388.688L167.808 389.168C168.384 389.824 169.008 390.736 169.36 391.376H166.416V397.744H171.36V399.264H164.912V400.368H171.36V403.216H172.56V400.368H179.104V399.264Z" fill="#333333"/>
<path d="M258.344 290L263.365 294.134C263.734 294.438 264.267 294.438 264.636 294.134L269.657 290" stroke="#999999" stroke-width="2" stroke-linecap="round"/>
<path d="M262.656 390.34L266.79 395.361C267.094 395.73 267.094 396.263 266.79 396.632L262.656 401.654" stroke="#999999" stroke-width="2" stroke-linecap="round"/>
</g>
<g filter="url(#filter1_d_2070_1230)">
<path d="M224 208C224 201.373 229.373 196 236 196H452C458.627 196 464 201.373 464 208V452C464 458.627 458.627 464 452 464H236C229.373 464 224 458.627 224 452V208Z" fill="white"/>
<path d="M297.104 282.264C296.752 281.832 295.232 280.12 294.656 279.56V278.152H297.024V277.032H294.656V273.608H293.536V277.032H290.88V278.152H293.376C292.8 280.36 291.632 282.824 290.512 284.168C290.704 284.456 291.008 284.92 291.136 285.256C292.016 284.152 292.896 282.344 293.536 280.472V288.2H294.656V280.888C295.28 281.688 296.064 282.712 296.368 283.24L297.104 282.264ZM303.68 286.968C303.568 286.968 303.472 286.936 303.392 286.872C303.312 286.792 303.28 286.488 303.28 285.96V274.52H297.968V279.608C297.968 282.072 297.744 285.24 295.6 287.448C295.872 287.608 296.32 288.008 296.496 288.216C298.784 285.864 299.12 282.264 299.12 279.624V275.64H302.128V285.864C302.128 287.24 302.224 287.528 302.464 287.752C302.72 287.976 303.088 288.04 303.376 288.04H304.176C304.528 288.04 304.8 287.992 305.04 287.848C305.264 287.672 305.408 287.4 305.472 286.952C305.536 286.552 305.6 285.384 305.6 284.472C305.312 284.376 304.928 284.184 304.688 283.976C304.672 285.032 304.656 285.864 304.64 286.248C304.608 286.6 304.56 286.76 304.48 286.84C304.4 286.936 304.272 286.968 304.128 286.968H303.68ZM318.784 284.984C318.528 284.008 317.84 282.456 317.152 281.256L316.24 281.56C316.544 282.088 316.832 282.712 317.088 283.32C316.192 283.416 315.296 283.528 314.48 283.624C314.992 282.232 315.568 280.36 315.984 278.808L314.832 278.552C314.512 280.104 313.92 282.312 313.376 283.752C312.912 283.8 312.48 283.848 312.096 283.88L312.368 284.968C313.776 284.776 315.632 284.504 317.44 284.2C317.6 284.632 317.712 285.032 317.792 285.352L318.784 284.984ZM314.752 276.232C315.056 275.48 315.312 274.68 315.536 273.88L314.368 273.608C313.952 275.224 313.344 276.808 312.56 278.088V277.032H310.448V273.608H309.296V277.032H306.832V278.136H309.152C308.608 280.264 307.504 282.712 306.416 284.024C306.624 284.296 306.912 284.792 307.04 285.096C307.872 284.024 308.672 282.28 309.296 280.488V288.2H310.448V280.792C311.008 281.56 311.68 282.536 311.968 283.064L312.72 282.088C312.368 281.656 310.944 279.944 310.448 279.4V278.136H312.528C312.24 278.616 311.904 279.064 311.568 279.448C311.856 279.624 312.336 280.024 312.56 280.216C313.2 279.432 313.792 278.44 314.304 277.32H319.776C319.584 283.848 319.328 286.28 318.864 286.824C318.704 287.032 318.544 287.096 318.272 287.08C317.936 287.08 317.168 287.08 316.304 287C316.528 287.32 316.672 287.832 316.688 288.168C317.472 288.216 318.272 288.232 318.736 288.168C319.248 288.104 319.6 287.992 319.904 287.528C320.512 286.76 320.72 284.296 320.96 276.84C320.96 276.68 320.976 276.232 320.976 276.232H314.752ZM334.288 285.208V286.76H326.784V285.208H334.288ZM333.264 280.92V282.28H326.784V280.92H333.264ZM326.784 283.192H334.432V280.008H325.664V288.232H326.784V287.688H334.288V288.2H335.456V284.28H326.784V283.192ZM337.264 274.824H331.84C332.032 274.504 332.192 274.152 332.336 273.816L331.2 273.544C330.88 274.344 330.384 275.096 329.792 275.752V274.824H325.6C325.776 274.504 325.936 274.168 326.064 273.832L324.96 273.544C324.48 274.792 323.616 276.04 322.656 276.872C322.944 277.016 323.408 277.336 323.632 277.512C324.096 277.048 324.576 276.472 325.008 275.816H325.696C326 276.376 326.32 277.016 326.448 277.448L327.504 277.128C327.392 276.776 327.152 276.28 326.88 275.816H329.728C329.424 276.152 329.088 276.44 328.736 276.696C328.912 276.776 329.168 276.92 329.392 277.064V278.072H323.36V281.064H324.48V279.016H335.6V281.064H336.752V278.072H330.528V276.824H330.288C330.592 276.52 330.896 276.184 331.184 275.816H332.464C332.912 276.376 333.36 277.032 333.536 277.496L334.624 277.128C334.448 276.76 334.112 276.264 333.76 275.816H337.264V274.824ZM343.648 283.784L341.904 284.36V280.392H343.504V279.288H341.904V275.816H343.744V274.696H338.784V275.816H340.768V279.288H338.96V280.392H340.768V284.712C339.952 284.984 339.216 285.208 338.624 285.384L338.896 286.584C340.32 286.12 342.144 285.496 343.856 284.92L343.648 283.784ZM345.616 278.392H348.048V280.424H345.616V278.392ZM345.616 275.384H348.048V277.4H345.616V275.384ZM351.52 277.4H349.072V275.384H351.52V277.4ZM351.52 280.424H349.072V278.392H351.52V280.424ZM349.168 286.616V284.424H352.896V283.336H349.168V281.464H352.656V274.344H344.528V281.464H347.968V283.336H344.336V284.424H347.968V286.616H343.104V287.704H353.408V286.616H349.168Z" fill="#333333"/>
<path d="M303.616 381.304C302.992 383.064 301.84 385.368 300.96 386.808L301.936 387.336C302.848 385.864 303.92 383.656 304.688 381.832L303.616 381.304ZM294.72 386.76C294.288 385.368 293.312 383.032 292.464 381.256L291.36 381.592C292.192 383.4 293.152 385.8 293.536 387.208L294.72 386.76ZM300.544 390.216V377.832H299.36V390.216H296.656V377.816H295.472V390.216H291.024V391.384H305.008V390.216H300.544ZM314.064 386.488C314.176 386.04 314.288 385.528 314.368 385L313.136 384.904C313.072 385.48 312.96 386.008 312.832 386.488H308.064V387.528H312.464C311.552 389.576 309.776 390.648 306.96 391.192C307.184 391.432 307.488 391.928 307.616 392.2C310.752 391.448 312.72 390.104 313.728 387.528H318.576C318.304 389.624 317.984 390.6 317.616 390.904C317.44 391.032 317.248 391.048 316.928 391.048C316.528 391.048 315.52 391.032 314.512 390.936C314.72 391.24 314.864 391.672 314.88 391.992C315.824 392.056 316.784 392.056 317.248 392.04C317.84 392.008 318.192 391.928 318.544 391.608C319.088 391.112 319.456 389.912 319.792 387.016C319.84 386.856 319.856 386.488 319.856 386.488H314.064ZM311.424 380.28H317.888C316.944 381.224 315.632 381.992 314.128 382.6C312.896 382.072 311.888 381.384 311.184 380.504L311.424 380.28ZM319.008 379.192L318.8 379.256H312.352C312.736 378.792 313.072 378.312 313.376 377.848L312.128 377.592C311.312 378.984 309.728 380.632 307.488 381.768C307.744 381.96 308.064 382.376 308.224 382.648C309.04 382.184 309.776 381.704 310.416 381.176C311.072 381.928 311.872 382.552 312.8 383.064C310.912 383.672 308.816 384.056 306.784 384.248C306.976 384.52 307.184 384.984 307.264 385.288C309.584 385 311.984 384.52 314.112 383.688C315.968 384.456 318.192 384.888 320.64 385.096C320.784 384.76 321.056 384.296 321.296 384.024C319.168 383.896 317.184 383.608 315.52 383.096C317.28 382.232 318.768 381.128 319.728 379.688L319.008 379.192ZM326.304 379.368H333.744V381.176H326.304V379.368ZM325.088 378.328V382.232H335.008V378.328H325.088ZM329.296 385.752V387.208C329.296 388.472 328.848 390.168 323.12 391.304C323.392 391.544 323.76 392.024 323.904 392.28C329.824 390.952 330.544 388.904 330.544 387.24V385.752H329.296ZM330.448 389.912C332.4 390.584 334.992 391.608 336.304 392.28L336.928 391.288C335.536 390.616 332.928 389.672 331.04 389.048L330.448 389.912ZM324.528 383.624V389.48H325.728V384.744H334.384V389.368H335.648V383.624H324.528ZM350.288 389.208V390.76H342.784V389.208H350.288ZM349.264 384.92V386.28H342.784V384.92H349.264ZM342.784 387.192H350.432V384.008H341.664V392.232H342.784V391.688H350.288V392.2H351.456V388.28H342.784V387.192ZM353.264 378.824H347.84C348.032 378.504 348.192 378.152 348.336 377.816L347.2 377.544C346.88 378.344 346.384 379.096 345.792 379.752V378.824H341.6C341.776 378.504 341.936 378.168 342.064 377.832L340.96 377.544C340.48 378.792 339.616 380.04 338.656 380.872C338.944 381.016 339.408 381.336 339.632 381.512C340.096 381.048 340.576 380.472 341.008 379.816H341.696C342 380.376 342.32 381.016 342.448 381.448L343.504 381.128C343.392 380.776 343.152 380.28 342.88 379.816H345.728C345.424 380.152 345.088 380.44 344.736 380.696C344.912 380.776 345.168 380.92 345.392 381.064V382.072H339.36V385.064H340.48V383.016H351.6V385.064H352.752V382.072H346.528V380.824H346.288C346.592 380.52 346.896 380.184 347.184 379.816H348.464C348.912 380.376 349.36 381.032 349.536 381.496L350.624 381.128C350.448 380.76 350.112 380.264 349.76 379.816H353.264V378.824ZM359.648 387.784L357.904 388.36V384.392H359.504V383.288H357.904V379.816H359.744V378.696H354.784V379.816H356.768V383.288H354.96V384.392H356.768V388.712C355.952 388.984 355.216 389.208 354.624 389.384L354.896 390.584C356.32 390.12 358.144 389.496 359.856 388.92L359.648 387.784ZM361.616 382.392H364.048V384.424H361.616V382.392ZM361.616 379.384H364.048V381.4H361.616V379.384ZM367.52 381.4H365.072V379.384H367.52V381.4ZM367.52 384.424H365.072V382.392H367.52V384.424ZM365.168 390.616V388.424H368.896V387.336H365.168V385.464H368.656V378.344H360.528V385.464H363.968V387.336H360.336V388.424H363.968V390.616H359.104V391.704H369.408V390.616H365.168Z" fill="#333333"/>
<path opacity="0.6" d="M273 229L270.293 226.293C270.105 226.105 269.851 226 269.586 226H264.414C264.149 226 263.895 226.105 263.707 226.293L261 229" stroke="#586482" stroke-width="2"/>
<path d="M264 219C264 218.448 264.448 218 265 218H269C269.552 218 270 218.448 270 219V222C270 222.552 269.552 223 269 223H265C264.448 223 264 222.552 264 222V219Z" stroke="#333333" stroke-width="2"/>
<path d="M259 230C259 229.448 259.448 229 260 229H263C263.552 229 264 229.448 264 230V233C264 233.552 263.552 234 263 234H260C259.448 234 259 233.552 259 233V230Z" stroke="#333333" stroke-width="2"/>
<path d="M270 230C270 229.448 270.448 229 271 229H274C274.552 229 275 229.448 275 230V233C275 233.552 274.552 234 274 234H271C270.448 234 270 233.552 270 233V230Z" stroke="#333333" stroke-width="2"/>
<path d="M432.344 229L437.365 224.866C437.734 224.562 438.267 224.562 438.636 224.866L443.657 229" stroke="#999999" stroke-width="2" stroke-linecap="round"/>
<path d="M296.368 229.632C294.816 230.368 292.992 230.944 290.912 231.376L291.12 233.04C293.088 232.592 294.832 231.984 296.368 231.232V229.632ZM293.536 218.784C292.928 220.416 292.208 221.92 291.408 223.28C291.184 223.6 290.944 223.808 290.688 223.92L291.104 225.456C291.936 225.344 292.736 225.232 293.504 225.136C292.768 226.32 292.16 227.168 291.664 227.648C291.456 227.84 291.2 228 290.912 228.128L291.344 229.664C292.96 229.44 294.688 228.976 296.512 228.304V226.768C295.488 227.168 294.464 227.488 293.456 227.744C294.384 226.592 295.536 224.8 296.88 222.4L295.376 221.824L294.416 223.6C293.856 223.68 293.296 223.744 292.736 223.808C293.536 222.672 294.336 221.2 295.12 219.408L293.536 218.784ZM304.096 219.552H297.248V231.504H295.952V233.104H305.36V231.504H304.096V219.552ZM298.88 231.504V229.072H302.464V231.504H298.88ZM298.88 227.504V225.04H302.464V227.504H298.88ZM298.88 223.472V221.152H302.464V223.472H298.88ZM312.304 230.096C310.672 230.672 308.784 231.12 306.624 231.472L306.848 233.136C308.88 232.768 310.704 232.304 312.304 231.728V230.096ZM309.312 218.768C308.72 220.512 308.032 222.112 307.264 223.568C307.056 223.872 306.816 224.08 306.544 224.208L306.976 225.744C307.808 225.616 308.608 225.488 309.376 225.392C308.672 226.544 308.08 227.344 307.6 227.824C307.392 228.016 307.136 228.176 306.832 228.304L307.28 229.872C308.864 229.648 310.544 229.184 312.336 228.512V227.072C311.344 227.424 310.384 227.696 309.424 227.904C310.336 226.752 311.456 224.944 312.8 222.512L311.296 221.92C310.912 222.64 310.56 223.312 310.224 223.92C309.664 223.984 309.104 224.048 308.528 224.096C309.328 222.88 310.128 221.312 310.912 219.392L309.312 218.768ZM313.008 219.648V227.584H320.592V219.648H313.008ZM318.944 226.016H314.656V221.232H318.944V226.016ZM314.384 228.176C313.648 229.92 312.784 231.408 311.76 232.656L313.184 233.68C314.208 232.336 315.088 230.736 315.84 228.88L314.384 228.176ZM318.928 228.176L317.584 229.024C318.64 230.736 319.488 232.288 320.112 233.696L321.552 232.704C320.928 231.424 320.048 229.904 318.928 228.176ZM334.704 225.136H325.312V233.664H326.992V233.136H333.808V233.68H335.456V229.328H326.992V228.576H334.704V225.136ZM326.992 231.664V230.64H333.808V231.664H326.992ZM326.992 227.264V226.464H333.088V227.264H326.992ZM336.912 223.104H330.896C330.8 222.816 330.688 222.544 330.592 222.288L331.328 222.752C331.648 222.304 331.952 221.824 332.224 221.312H332.944C333.28 221.792 333.568 222.288 333.824 222.8L335.296 222.24C335.136 221.952 334.944 221.632 334.72 221.312H337.248V219.856H332.848C332.928 219.632 333.008 219.392 333.088 219.152L331.504 218.8C331.184 219.888 330.656 220.912 329.92 221.872L330.24 222.08L328.832 222.32C328.96 222.56 329.088 222.816 329.216 223.104H323.088V226.24H324.72V224.512H335.28V226.24H336.912V223.104ZM325.344 221.312H325.936C326.288 221.84 326.592 222.384 326.848 222.96L328.368 222.368C328.192 222.032 327.968 221.68 327.712 221.312H329.984V219.856H326.048C326.144 219.616 326.224 219.376 326.32 219.136L324.704 218.784C324.336 219.904 323.696 220.976 322.768 221.968L324.224 222.896C324.64 222.416 325.008 221.888 325.344 221.312ZM344.464 219.36V227.12H347.744V228.592H344.288V230.144H347.744V231.632H343.68V233.248H353.392V231.632H349.408V230.144H352.848V228.592H349.408V227.12H352.656V219.36H344.464ZM351.056 225.648H349.408V223.952H351.056V225.648ZM347.744 225.648H346.064V223.952H347.744V225.648ZM346.064 222.528V220.832H347.744V222.528H346.064ZM349.408 220.832H351.056V222.528H349.408V220.832ZM338.976 224.608V226.208H340.496V229.728C339.872 229.888 339.232 230.016 338.576 230.128L338.992 231.728C340.656 231.328 342.224 230.848 343.696 230.272V228.656C343.2 228.864 342.704 229.056 342.192 229.232V226.208H343.744V224.608H342.192V221.344H343.936V219.76H338.736V221.344H340.496V224.608H338.976Z" fill="#333333"/>
<path d="M302.416 330.104H299.952V328.088H298.8V330.104H293.664V331.176H298.416C297.12 332.92 295.2 334.504 293.424 335.464C293.696 335.672 294.032 336.04 294.192 336.264C295.776 335.368 297.472 334.04 298.8 332.52V336.232C298.8 336.424 298.736 336.488 298.528 336.488C298.336 336.504 297.648 336.504 296.928 336.488C297.088 336.792 297.264 337.24 297.312 337.56C298.352 337.56 298.992 337.528 299.392 337.336C299.824 337.16 299.952 336.856 299.952 336.232V331.176H302.416V330.104ZM292.608 338.488V327.416H303.344V338.488H292.608ZM291.408 326.312V340.232H292.608V339.576H303.344V340.232H304.592V326.312H291.408ZM312.016 326.216L311.824 326.264H307.664V340.2H308.8V327.352H311.328C310.976 328.424 310.464 329.816 309.968 330.968C311.2 332.216 311.536 333.304 311.536 334.168C311.536 334.648 311.44 335.064 311.184 335.24C311.024 335.336 310.848 335.384 310.64 335.384C310.384 335.4 310.048 335.4 309.664 335.368C309.856 335.688 309.968 336.168 309.984 336.488C310.368 336.504 310.784 336.504 311.136 336.472C311.456 336.424 311.76 336.328 312 336.152C312.48 335.832 312.672 335.128 312.672 334.264C312.672 333.288 312.384 332.12 311.152 330.808C311.712 329.56 312.336 328.024 312.848 326.728L312.016 326.216ZM315.936 325.624C315.92 331.064 316 336.648 311.488 339.384C311.824 339.608 312.208 339.976 312.4 340.264C314.816 338.712 316 336.392 316.576 333.688C317.168 335.944 318.32 338.696 320.64 340.232C320.816 339.928 321.184 339.576 321.504 339.336C317.952 337.096 317.232 331.992 316.992 330.504C317.12 328.92 317.12 327.256 317.136 325.624H315.936ZM334.288 337.208V338.76H326.784V337.208H334.288ZM333.264 332.92V334.28H326.784V332.92H333.264ZM326.784 335.192H334.432V332.008H325.664V340.232H326.784V339.688H334.288V340.2H335.456V336.28H326.784V335.192ZM337.264 326.824H331.84C332.032 326.504 332.192 326.152 332.336 325.816L331.2 325.544C330.88 326.344 330.384 327.096 329.792 327.752V326.824H325.6C325.776 326.504 325.936 326.168 326.064 325.832L324.96 325.544C324.48 326.792 323.616 328.04 322.656 328.872C322.944 329.016 323.408 329.336 323.632 329.512C324.096 329.048 324.576 328.472 325.008 327.816H325.696C326 328.376 326.32 329.016 326.448 329.448L327.504 329.128C327.392 328.776 327.152 328.28 326.88 327.816H329.728C329.424 328.152 329.088 328.44 328.736 328.696C328.912 328.776 329.168 328.92 329.392 329.064V330.072H323.36V333.064H324.48V331.016H335.6V333.064H336.752V330.072H330.528V328.824H330.288C330.592 328.52 330.896 328.184 331.184 327.816H332.464C332.912 328.376 333.36 329.032 333.536 329.496L334.624 329.128C334.448 328.76 334.112 328.264 333.76 327.816H337.264V326.824ZM343.648 335.784L341.904 336.36V332.392H343.504V331.288H341.904V327.816H343.744V326.696H338.784V327.816H340.768V331.288H338.96V332.392H340.768V336.712C339.952 336.984 339.216 337.208 338.624 337.384L338.896 338.584C340.32 338.12 342.144 337.496 343.856 336.92L343.648 335.784ZM345.616 330.392H348.048V332.424H345.616V330.392ZM345.616 327.384H348.048V329.4H345.616V327.384ZM351.52 329.4H349.072V327.384H351.52V329.4ZM351.52 332.424H349.072V330.392H351.52V332.424ZM349.168 338.616V336.424H352.896V335.336H349.168V333.464H352.656V326.344H344.528V333.464H347.968V335.336H344.336V336.424H347.968V338.616H343.104V339.704H353.408V338.616H349.168Z" fill="#333333"/>
<path d="M302.544 439.352V440.584H297.808V439.352H302.544ZM297.808 442.696V441.432H302.544V442.696H297.808ZM296.688 444.216H297.808V443.624H302.544V444.168H303.728V438.44H296.688V444.216ZM297.488 434.504C297.776 435.08 298.048 435.864 298.16 436.344L298.928 436.104C298.816 435.624 298.512 434.856 298.224 434.296L297.488 434.504ZM301.824 436.344C302.112 435.88 302.432 435.192 302.736 434.552L301.904 434.28C301.744 434.792 301.44 435.576 301.184 436.104L301.824 436.344ZM303.456 436.616H300.576V433.928H303.456V436.616ZM296.88 433.928H299.68V436.616H296.88V433.928ZM298.848 430.04V431.064H301.68C302.128 431.752 302.688 432.424 303.296 433.032H297.024C297.616 432.344 298.16 431.56 298.56 430.776L297.52 430.472C296.912 431.608 295.968 432.696 294.976 433.496H293.6V429.864H292.448V433.496H290.752V434.632H292.448V439.752C291.728 440.04 291.056 440.312 290.528 440.504L290.928 441.688L295.616 439.624L295.328 438.552C294.752 438.792 294.16 439.048 293.6 439.272V434.632H295.008V433.976C295.2 434.168 295.408 434.408 295.504 434.536C295.648 434.424 295.792 434.296 295.936 434.168V437.528H304.464V434.088C304.576 434.184 304.704 434.28 304.816 434.36C305.008 434.072 305.376 433.672 305.6 433.464C304.416 432.728 303.056 431.384 302.304 430.04H298.848ZM310.304 431.368H317.744V433.176H310.304V431.368ZM309.088 430.328V434.232H319.008V430.328H309.088ZM313.296 437.752V439.208C313.296 440.472 312.848 442.168 307.12 443.304C307.392 443.544 307.76 444.024 307.904 444.28C313.824 442.952 314.544 440.904 314.544 439.24V437.752H313.296ZM314.448 441.912C316.4 442.584 318.992 443.608 320.304 444.28L320.928 443.288C319.536 442.616 316.928 441.672 315.04 441.048L314.448 441.912ZM308.528 435.624V441.48H309.728V436.744H318.384V441.368H319.648V435.624H308.528ZM336.368 430.92L336.144 430.952H332.032C332.288 430.616 332.512 430.28 332.688 429.928L331.536 429.56C330.992 430.76 329.664 432.056 328.272 432.808C328.496 433.016 328.816 433.432 328.976 433.672C329.744 433.24 330.496 432.648 331.168 431.992H335.568C335.024 433.176 334.176 434.056 333.12 434.744C332.608 434.12 331.792 433.352 331.104 432.808L330.24 433.32C330.912 433.896 331.68 434.648 332.16 435.256C330.976 435.8 329.584 436.168 328.048 436.392C328.272 436.616 328.576 437.096 328.688 437.384C332.624 436.68 335.792 435.112 337.072 431.272L336.368 430.92ZM325.664 432.904C325.408 432.232 324.752 431.192 324.144 430.456L323.232 430.92C323.824 431.688 324.464 432.76 324.704 433.432L325.664 432.904ZM326.496 437.416H327.648V429.608H326.496V433.656C325.12 434.344 323.744 435.016 322.8 435.448L323.312 436.472C324.24 435.992 325.376 435.384 326.496 434.776V437.416ZM336.944 439.688V438.616H330.448C330.544 438.216 330.608 437.832 330.672 437.4H329.44C329.376 437.832 329.312 438.232 329.216 438.616H323.008V439.688H328.864C328.128 441.432 326.56 442.632 322.752 443.24C322.96 443.48 323.216 443.96 323.312 444.248C327.344 443.544 329.12 442.152 329.984 440.136C331.168 442.44 333.344 443.64 336.608 444.12C336.736 443.816 337.056 443.32 337.328 443.08C334.144 442.728 331.984 441.672 330.96 439.688H336.944ZM343.504 436.328C343.536 435.704 343.552 435.064 343.568 434.408H346.592V433.336H340.768V431.624H347.104V430.52H339.664V436.344C339.664 438.552 339.584 441.512 338.544 443.608C338.816 443.688 339.312 443.976 339.52 444.168C340.608 442.008 340.768 438.68 340.768 436.328V434.408H342.48C342.416 438.248 342.192 441.64 340.352 443.544C340.64 443.704 341.008 444.072 341.168 444.328C342.704 442.728 343.232 440.264 343.456 437.352H345.232C345.088 441.048 344.912 442.408 344.64 442.728C344.528 442.904 344.4 442.936 344.176 442.936C343.952 442.936 343.424 442.92 342.848 442.856C342.992 443.144 343.088 443.544 343.104 443.864C343.712 443.896 344.304 443.896 344.64 443.848C345.04 443.832 345.312 443.72 345.552 443.4C345.952 442.888 346.112 441.336 346.304 436.824C346.304 436.68 346.32 436.328 346.32 436.328H343.504ZM349.872 433.576C349.904 432.392 349.92 431.128 349.92 429.88H348.816C348.816 431.128 348.816 432.392 348.784 433.576H346.992V434.68H348.736C348.56 438.376 347.984 441.528 346 443.48C346.288 443.64 346.688 444.008 346.88 444.264C349.008 442.088 349.632 438.664 349.824 434.68H351.76C351.6 440.424 351.44 442.472 351.088 442.92C350.928 443.128 350.8 443.176 350.544 443.16C350.256 443.16 349.584 443.16 348.848 443.096C349.04 443.416 349.152 443.864 349.168 444.2C349.888 444.232 350.608 444.248 351.024 444.2C351.472 444.152 351.776 444.008 352.064 443.624C352.544 442.952 352.704 440.776 352.864 434.152C352.864 434.008 352.88 433.576 352.88 433.576H349.872Z" fill="#333333"/>
</g>
<g filter="url(#filter2_d_2070_1230)">
<path d="M370 109C370 102.373 375.373 97 382 97H598C604.627 97 610 102.373 610 109V301C610 307.627 604.627 313 598 313H382C375.373 313 370 307.627 370 301V109Z" fill="white"/>
<path d="M578.344 130L583.365 125.866C583.734 125.562 584.267 125.562 584.636 125.866L589.657 130" stroke="#999999" stroke-width="2" stroke-linecap="round"/>
<path d="M444.272 119.672L442.512 119.96C442.752 120.376 442.976 120.84 443.184 121.352H437.632V122.936H440.448L440.976 124.888H437.76V128.584C437.728 130.68 437.296 132.312 436.48 133.496L437.744 134.632C438.832 133.112 439.392 131.096 439.456 128.584V126.504H450.752V124.888H447.136C447.392 124.248 447.6 123.608 447.76 122.936H450.416V121.352H444.896C444.704 120.728 444.496 120.168 444.272 119.672ZM442.624 124.888L442.096 122.936H446.16C446 123.608 445.792 124.248 445.52 124.888H442.624ZM455.408 120.36V126.072H464.608V120.36H455.408ZM462.928 124.504H457.088V121.928H462.928V124.504ZM459.28 127.128H453.248V134.424H454.88V133.672H457.664V134.424H459.28V127.128ZM454.88 132.12V128.696H457.664V132.12H454.88ZM466.752 127.128H460.528V134.424H462.16V133.672H465.088V134.424H466.752V127.128ZM462.16 132.12V128.696H465.088V132.12H462.16ZM478.224 119.912V124.168H475.264V134.6H476.928V131.224H481.152V132.264C481.152 132.792 480.976 133.064 480.624 133.064L479.2 132.984L479.632 134.568H481.152C482.256 134.568 482.816 133.912 482.816 132.632V124.168H479.872V119.912H478.224ZM476.928 128.488H481.152V129.816H476.928V128.488ZM481.152 127.08H476.928V125.752H481.152V127.08ZM476.24 120.52L474.848 121.192C475.36 121.96 475.84 122.84 476.288 123.8L477.632 123.128C477.184 122.168 476.72 121.304 476.24 120.52ZM481.856 120.344C481.504 121.256 481.024 122.168 480.416 123.096L481.76 123.8C482.368 122.904 482.848 121.976 483.232 121.016L481.856 120.344ZM470.528 119.896C470.128 121.72 469.44 123.448 468.448 125.064L469.808 125.928C469.968 125.672 470.128 125.4 470.288 125.112V126.232H471.056V127.736H469.04V129.272H471.056V132.248C471.056 132.536 470.848 132.76 470.448 132.904L471.136 134.344C472.56 133.96 473.824 133.48 474.928 132.904L474.64 131.448C474 131.832 473.344 132.136 472.688 132.392V129.272H474.704V127.736H472.688V126.232H474.16V124.744H470.48C470.736 124.232 470.992 123.672 471.232 123.08H474.432V121.496H471.776C471.904 121.096 472.016 120.68 472.128 120.232L470.528 119.896ZM497.904 129.784H486.672V134.744H488.32V134.088H496.256V134.744H497.904V129.784ZM488.32 132.648V131.192H496.256V132.648H488.32ZM486.72 124.68V128.952H498.784V127.56H493.872V126.76H497.808V125.48H493.872V124.728H497.776V123.448H493.872V122.664H498.48V121.288H494.032C493.824 120.712 493.616 120.2 493.408 119.72L491.68 120.008C491.936 120.392 492.16 120.824 492.384 121.288H489.072C489.264 120.904 489.424 120.52 489.584 120.104L487.952 119.784C487.312 121.512 486.192 123.112 484.592 124.584L485.12 126.232C485.68 125.736 486.208 125.224 486.72 124.68ZM492.224 127.56H488.288V126.76H492.224V127.56ZM492.224 125.48H488.288V124.728H492.224V125.48ZM492.224 123.448H488.288V122.664H492.224V123.448Z" fill="#333333"/>
<path d="M405.102 127.118C405.102 126.375 405.884 125.891 406.549 126.224L410.549 128.224C410.888 128.393 411.102 128.739 411.102 129.118V133.882C411.102 134.625 410.319 135.109 409.654 134.776L405.654 132.776C405.316 132.607 405.102 132.261 405.102 131.882V127.118Z" stroke="#333333" stroke-width="2"/>
<path d="M420.898 127.118C420.898 126.375 420.116 125.891 419.451 126.224L415.451 128.224C415.112 128.393 414.898 128.739 414.898 129.118V133.882C414.898 134.625 415.681 135.109 416.346 134.776L420.346 132.776C420.684 132.607 420.898 132.261 420.898 131.882V127.118Z" stroke="#333333" stroke-width="2"/>
<path opacity="0.6" d="M412.534 119.588C412.825 119.434 413.174 119.434 413.465 119.588L417.275 121.592C417.996 121.972 417.985 123.007 417.256 123.372L413.447 125.276C413.165 125.417 412.834 125.417 412.552 125.276L408.743 123.372C408.015 123.007 408.004 121.972 408.725 121.592L412.534 119.588Z" stroke="#586482" stroke-width="2"/>
<path d="M440.496 228.48C439.984 227.92 438.928 227.216 438.064 226.784L437.36 227.632C438.24 228.096 439.296 228.848 439.776 229.392L440.496 228.48ZM439.888 232.592C439.36 232.08 438.24 231.424 437.36 231.008L436.688 231.872C437.584 232.32 438.672 233.024 439.184 233.552L439.888 232.592ZM439.2 235.328C438.544 237.12 437.632 239.184 436.992 240.4L438.064 241.04C438.752 239.568 439.552 237.616 440.144 235.952L439.2 235.328ZM442.864 236.576C442.864 236.432 442.864 236.304 442.864 236.176V235.568H446.336V234.576H443.728V233.36H445.184C445.44 233.568 445.84 233.984 445.984 234.176C446.256 233.728 446.512 233.232 446.736 232.688C446.96 234.16 447.328 235.728 447.92 237.184C447.264 238.528 446.384 239.616 445.168 240.448C445.392 240 445.472 239.04 445.568 237.024C445.584 236.864 445.584 236.576 445.584 236.576H442.864ZM441.824 231.2H444.64V232.48H441.824V231.2ZM441.824 229.12H444.64V230.368H441.824V229.12ZM449.488 230.768C449.28 232.72 448.96 234.448 448.448 235.936C447.856 234.32 447.52 232.56 447.328 230.944L447.376 230.768H449.488ZM451.344 230.768V229.664H447.664C447.872 228.736 448.032 227.776 448.176 226.784L447.04 226.608C446.784 228.736 446.368 230.8 445.664 232.368V228.224H443.504C443.68 227.776 443.856 227.28 444.048 226.784L442.8 226.608C442.72 227.056 442.544 227.696 442.368 228.224H440.848V233.36H442.624V234.576H440.112V235.568H441.856V236.144C441.856 237.328 441.632 239.2 439.6 240.624C439.856 240.8 440.224 241.104 440.416 241.312C441.984 240.192 442.56 238.784 442.768 237.552H444.496C444.416 239.152 444.32 239.76 444.16 239.968C444.08 240.08 443.952 240.096 443.744 240.096C443.552 240.096 443.024 240.096 442.448 240.032C442.608 240.288 442.72 240.704 442.736 241.008C443.328 241.04 443.936 241.04 444.24 241.008C444.592 240.976 444.848 240.88 445.056 240.624C445.088 240.592 445.12 240.544 445.136 240.496C445.392 240.688 445.808 241.056 445.952 241.264C447.008 240.48 447.824 239.52 448.48 238.4C449.056 239.488 449.808 240.448 450.752 241.2C450.928 240.928 451.296 240.48 451.504 240.272C450.448 239.52 449.648 238.48 449.04 237.296C449.84 235.52 450.288 233.36 450.576 230.768H451.344ZM457.504 233.328C457.536 232.704 457.552 232.064 457.568 231.408H460.592V230.336H454.768V228.624H461.104V227.52H453.664V233.344C453.664 235.552 453.584 238.512 452.544 240.608C452.816 240.688 453.312 240.976 453.52 241.168C454.608 239.008 454.768 235.68 454.768 233.328V231.408H456.48C456.416 235.248 456.192 238.64 454.352 240.544C454.64 240.704 455.008 241.072 455.168 241.328C456.704 239.728 457.232 237.264 457.456 234.352H459.232C459.088 238.048 458.912 239.408 458.64 239.728C458.528 239.904 458.4 239.936 458.176 239.936C457.952 239.936 457.424 239.92 456.848 239.856C456.992 240.144 457.088 240.544 457.104 240.864C457.712 240.896 458.304 240.896 458.64 240.848C459.04 240.832 459.312 240.72 459.552 240.4C459.952 239.888 460.112 238.336 460.304 233.824C460.304 233.68 460.32 233.328 460.32 233.328H457.504ZM463.872 230.576C463.904 229.392 463.92 228.128 463.92 226.88H462.816C462.816 228.128 462.816 229.392 462.784 230.576H460.992V231.68H462.736C462.56 235.376 461.984 238.528 460 240.48C460.288 240.64 460.688 241.008 460.88 241.264C463.008 239.088 463.632 235.664 463.824 231.68H465.76C465.6 237.424 465.44 239.472 465.088 239.92C464.928 240.128 464.8 240.176 464.544 240.16C464.256 240.16 463.584 240.16 462.848 240.096C463.04 240.416 463.152 240.864 463.168 241.2C463.888 241.232 464.608 241.248 465.024 241.2C465.472 241.152 465.776 241.008 466.064 240.624C466.544 239.952 466.704 237.776 466.864 231.152C466.864 231.008 466.88 230.576 466.88 230.576H463.872ZM473.152 228.464C472.48 228.016 471.136 227.28 470.16 226.816L469.504 227.664C470.48 228.192 471.808 228.96 472.464 229.424L473.152 228.464ZM472.336 232.784C471.632 232.336 470.304 231.632 469.376 231.168L468.72 232.032C469.696 232.544 471.008 233.312 471.664 233.76L472.336 232.784ZM470.096 241.008C471.04 239.536 472.16 237.552 472.992 235.872L472.128 235.088C471.2 236.896 469.968 239.008 469.104 240.208L470.096 241.008ZM481.072 239.44H475.392V236.144H481.072V239.44ZM483.248 232.416V231.264H478.864V228.496C480.24 228.256 481.52 227.952 482.56 227.6L481.632 226.672C479.856 227.312 476.64 227.808 473.888 228.096C474 228.368 474.16 228.816 474.224 229.104C475.36 228.992 476.56 228.848 477.728 228.672V231.264H473.12V232.416H477.728V235.04H474.288V241.216H475.392V240.544H481.072V241.136H482.208V235.04H478.864V232.416H483.248ZM491.632 227.92H485.488V228.992H491.632V227.92ZM492.192 238.592C491.888 237.472 491.184 235.6 490.576 234.176L489.584 234.448C489.904 235.2 490.224 236.064 490.512 236.88L486.72 237.68C487.344 236.24 487.936 234.48 488.352 232.8H491.904V231.712H484.912V232.8H487.12C486.72 234.656 486.048 236.528 485.824 237.056C485.568 237.648 485.36 238.08 485.104 238.144C485.232 238.448 485.424 239.008 485.472 239.248C485.472 239.232 485.472 239.216 485.488 239.2V239.264C485.856 239.04 486.432 238.864 490.848 237.872C490.96 238.272 491.056 238.64 491.136 238.928L492.192 238.592ZM495.552 230.288C495.584 229.168 495.6 228.016 495.6 226.88H494.432C494.432 228.016 494.432 229.168 494.384 230.288H492.112V231.424H494.336C494.144 235.056 493.504 238.368 491.344 240.352C491.648 240.528 492.064 240.928 492.272 241.216C494.608 238.976 495.28 235.36 495.504 231.424H497.888C497.712 237.088 497.488 239.184 497.072 239.648C496.912 239.856 496.736 239.904 496.464 239.888C496.112 239.888 495.28 239.888 494.384 239.808C494.592 240.144 494.72 240.624 494.752 240.976C495.6 241.024 496.464 241.04 496.96 240.992C497.472 240.928 497.776 240.8 498.112 240.384C498.656 239.68 498.848 237.424 499.056 230.88C499.056 230.72 499.072 230.288 499.072 230.288H495.552Z" fill="#333333"/>
<path d="M450.384 176.544H445.104L445.184 176.512C444.976 175.984 444.464 175.184 443.984 174.592L442.816 174.928C443.184 175.392 443.568 176.032 443.792 176.544H437.808V177.68H450.384V176.544ZM442.672 180.064C442.4 179.44 441.808 178.496 441.264 177.824L440.24 178.24C440.768 178.96 441.344 179.92 441.584 180.544L442.672 180.064ZM450.8 180.592H446.896C447.344 179.92 447.84 179.088 448.272 178.32L446.992 177.904C446.704 178.704 446.144 179.856 445.696 180.592H438.048V182.768C438.048 184.448 437.888 186.8 436.64 188.512C436.88 188.656 437.408 189.12 437.616 189.344C438.976 187.456 439.264 184.688 439.264 182.8V181.744H450.8V180.592ZM463.2 179.456H456.848V176.432H463.2V179.456ZM464.4 175.296H455.696V180.592H464.4V175.296ZM457.856 183.424V187.216H454.512V183.424H457.856ZM453.376 189.232H454.512V188.368H457.856V189.088H459.024V182.272H453.376V189.232ZM461.92 187.216V183.424H465.552V187.216H461.92ZM460.768 182.272V189.232H461.92V188.368H465.552V189.12H466.72V182.272H460.768ZM480.288 186.208V187.76H472.784V186.208H480.288ZM479.264 181.92V183.28H472.784V181.92H479.264ZM472.784 184.192H480.432V181.008H471.664V189.232H472.784V188.688H480.288V189.2H481.456V185.28H472.784V184.192ZM483.264 175.824H477.84C478.032 175.504 478.192 175.152 478.336 174.816L477.2 174.544C476.88 175.344 476.384 176.096 475.792 176.752V175.824H471.6C471.776 175.504 471.936 175.168 472.064 174.832L470.96 174.544C470.48 175.792 469.616 177.04 468.656 177.872C468.944 178.016 469.408 178.336 469.632 178.512C470.096 178.048 470.576 177.472 471.008 176.816H471.696C472 177.376 472.32 178.016 472.448 178.448L473.504 178.128C473.392 177.776 473.152 177.28 472.88 176.816H475.728C475.424 177.152 475.088 177.44 474.736 177.696C474.912 177.776 475.168 177.92 475.392 178.064V179.072H469.36V182.064H470.48V180.016H481.6V182.064H482.752V179.072H476.528V177.824H476.288C476.592 177.52 476.896 177.184 477.184 176.816H478.464C478.912 177.376 479.36 178.032 479.536 178.496L480.624 178.128C480.448 177.76 480.112 177.264 479.76 176.816H483.264V175.824ZM489.648 184.784L487.904 185.36V181.392H489.504V180.288H487.904V176.816H489.744V175.696H484.784V176.816H486.768V180.288H484.96V181.392H486.768V185.712C485.952 185.984 485.216 186.208 484.624 186.384L484.896 187.584C486.32 187.12 488.144 186.496 489.856 185.92L489.648 184.784ZM491.616 179.392H494.048V181.424H491.616V179.392ZM491.616 176.384H494.048V178.4H491.616V176.384ZM497.52 178.4H495.072V176.384H497.52V178.4ZM497.52 181.424H495.072V179.392H497.52V181.424ZM495.168 187.616V185.424H498.896V184.336H495.168V182.464H498.656V175.344H490.528V182.464H493.968V184.336H490.336V185.424H493.968V187.616H489.104V188.704H499.408V187.616H495.168Z" fill="#333333"/>
<path d="M578.344 285L583.365 289.134C583.734 289.438 584.267 289.438 584.636 289.134L589.657 285" stroke="#999999" stroke-width="2" stroke-linecap="round"/>
<path d="M441.6 286.616L440.064 287.064V283.912H441.616V282.824H440.064V279.624H438.912V282.824H436.768V283.912H438.912V287.4C438 287.672 437.152 287.912 436.496 288.072L436.768 289.224L438.912 288.568V292.776C438.912 293.016 438.848 293.08 438.64 293.08C438.432 293.096 437.776 293.096 437.056 293.064C437.216 293.384 437.36 293.912 437.408 294.2C438.464 294.216 439.104 294.184 439.52 293.992C439.92 293.784 440.064 293.448 440.064 292.776V288.216L441.744 287.688L441.6 286.616ZM444.08 290.072H446.688V292.296H444.08V290.072ZM446.688 285.832H444.08V283.688H446.688V285.832ZM446.688 289.032H444.08V286.856H446.688V289.032ZM451.312 292.296H447.776V290.072H450.656V289.032H447.776V286.856H450.656V285.832H447.776V283.688H451.04V282.616H447.856C448.24 281.8 448.672 280.824 449.024 279.944L447.776 279.656C447.536 280.52 447.104 281.704 446.688 282.616H444.24C444.64 281.736 444.976 280.824 445.264 279.88L444.128 279.592C443.472 281.896 442.352 284.088 440.96 285.496C441.2 285.736 441.6 286.248 441.76 286.488C442.176 286.04 442.576 285.528 442.944 284.968V294.2H444.08V293.384H451.312V292.296ZM467.008 281.736H461.056V279.624H459.824V281.736H454.32V286.072C454.32 288.312 454.176 291.368 452.672 293.528C452.944 293.672 453.424 294.088 453.616 294.328C455.264 291.992 455.52 288.488 455.52 286.072V282.872H467.008V281.736ZM471.168 284.696C471.232 284.312 471.312 283.912 471.376 283.496H473.68C473.648 283.912 473.568 284.312 473.392 284.696H471.168ZM474.8 281.496H477.328V282.632H474.8V281.496ZM480.832 281.496V282.632H478.464V281.496H480.832ZM477.328 284.696H474.576C474.688 284.312 474.752 283.912 474.784 283.496H477.328V284.696ZM471.024 292.024H472.16V288.6H479.904V291.912H481.088V287.592H471.584C472.976 287.032 473.76 286.328 474.208 285.544H477.328V287.208H478.464V285.544H481.68C481.616 285.992 481.552 286.216 481.472 286.312C481.376 286.392 481.264 286.408 481.088 286.408C480.912 286.408 480.48 286.408 479.968 286.344C480.08 286.584 480.192 286.936 480.208 287.16C480.768 287.192 481.328 287.208 481.6 287.176C481.936 287.176 482.176 287.096 482.384 286.888C482.608 286.648 482.736 286.12 482.848 285.096C482.848 284.936 482.864 284.696 482.864 284.696H478.464V283.496H481.92V280.632H478.464V279.624H477.328V280.632H474.8V279.624H473.712V280.632H469.776V281.496H473.712V282.632H470.848V282.648H470.4C470.288 283.592 470.096 284.76 469.936 285.544H472.816C472.144 286.248 470.976 286.856 468.992 287.32C469.184 287.528 469.472 287.976 469.584 288.232C470.112 288.12 470.608 287.976 471.024 287.816V292.024ZM475.584 289.256C475.072 291.64 473.744 292.728 468.752 293.224C468.944 293.48 469.168 293.944 469.248 294.232C474.56 293.592 476.176 292.184 476.768 289.256H475.584ZM476.336 292.04C478.368 292.616 481.056 293.576 482.4 294.232L483.056 293.288C481.632 292.632 478.928 291.752 476.96 291.24L476.336 292.04ZM489.056 283.16H488.112V281.304H489.056V283.16ZM490.736 287.384L490.672 287.336C490.656 287.384 490.608 287.384 490.448 287.384H489.872C489.664 287.384 489.648 287.368 489.648 287.16V284.168H490.736V287.384ZM486.32 292.104V290.456H490.736V292.104H486.32ZM487.424 284.168V285.432C487.424 286.28 487.264 287.32 486.336 288.136C486.48 288.216 486.752 288.456 486.864 288.6C487.856 287.688 488.08 286.424 488.08 285.448V284.168H488.976V287.16C488.976 287.928 489.168 288.088 489.792 288.088H490.56C490.624 288.088 490.688 288.088 490.736 288.072V289.56H486.32V284.168H487.424ZM484.96 281.304H487.264V283.16H485.36V294.168H486.32V293.064H490.736V293.944H491.712V283.16H489.92V281.304H492.08V280.232H484.96V281.304ZM494.96 292.936C494.224 292.936 494.08 292.824 494.08 292.232V286.472H497.68V287.544H498.848V280.328H492.848V281.48H497.68V285.336H492.912V292.232C492.912 293.688 493.36 294.056 494.832 294.056H497.488C498.944 294.056 499.28 293.336 499.44 290.744C499.104 290.664 498.608 290.44 498.336 290.232C498.256 292.536 498.128 292.936 497.424 292.936H494.96ZM506.656 281.144H509.264V282.568H506.656V281.144ZM505.552 282.568H503.008V281.144H505.552V282.568ZM510.368 281.144H513.056V282.568H510.368V281.144ZM512.416 287.784H505.936V286.92H512.416V287.784ZM512.416 289.368H505.936V288.488H512.416V289.368ZM512.416 290.984H505.936V290.088H512.416V290.984ZM504.832 286.184V291.704H513.552V286.184H508.368C508.416 285.896 508.48 285.592 508.528 285.256H514.88V284.312H508.688C508.736 284.024 508.768 283.72 508.816 283.448H514.224V280.28H501.888V283.448H507.616C507.584 283.72 507.552 284.024 507.52 284.312H501.152V285.256H507.376C507.328 285.576 507.264 285.896 507.216 286.184H504.832ZM515.28 292.6H503.216V286.424H502.032V294.232H503.216V293.56H515.28V292.6Z" fill="#333333"/>
</g>
<defs>
<filter id="filter0_d_2070_1230" x="0" y="0" width="340" height="472" filterUnits="userSpaceOnUse" color-interpolation-filters="sRGB">
<feFlood flood-opacity="0" result="BackgroundImageFix"/>
<feColorMatrix in="SourceAlpha" type="matrix" values="0 0 0 0 0 0 0 0 0 0 0 0 0 0 0 0 0 0 127 0" result="hardAlpha"/>
<feOffset/>
<feGaussianBlur stdDeviation="25"/>
<feComposite in2="hardAlpha" operator="out"/>
<feColorMatrix type="matrix" values="0 0 0 0 0.0972222 0 0 0 0 0.233333 0 0 0 0 0.583333 0 0 0 0.1 0"/>
<feBlend mode="normal" in2="BackgroundImageFix" result="effect1_dropShadow_2070_1230"/>
<feBlend mode="normal" in="SourceGraphic" in2="effect1_dropShadow_2070_1230" result="shape"/>
</filter>
<filter id="filter1_d_2070_1230" x="174" y="146" width="340" height="368" filterUnits="userSpaceOnUse" color-interpolation-filters="sRGB">
<feFlood flood-opacity="0" result="BackgroundImageFix"/>
<feColorMatrix in="SourceAlpha" type="matrix" values="0 0 0 0 0 0 0 0 0 0 0 0 0 0 0 0 0 0 127 0" result="hardAlpha"/>
<feOffset/>
<feGaussianBlur stdDeviation="25"/>
<feComposite in2="hardAlpha" operator="out"/>
<feColorMatrix type="matrix" values="0 0 0 0 0.0972222 0 0 0 0 0.233333 0 0 0 0 0.583333 0 0 0 0.1 0"/>
<feBlend mode="normal" in2="BackgroundImageFix" result="effect1_dropShadow_2070_1230"/>
<feBlend mode="normal" in="SourceGraphic" in2="effect1_dropShadow_2070_1230" result="shape"/>
</filter>
<filter id="filter2_d_2070_1230" x="320" y="47" width="340" height="316" filterUnits="userSpaceOnUse" color-interpolation-filters="sRGB">
<feFlood flood-opacity="0" result="BackgroundImageFix"/>
<feColorMatrix in="SourceAlpha" type="matrix" values="0 0 0 0 0 0 0 0 0 0 0 0 0 0 0 0 0 0 127 0" result="hardAlpha"/>
<feOffset/>
<feGaussianBlur stdDeviation="25"/>
<feComposite in2="hardAlpha" operator="out"/>
<feColorMatrix type="matrix" values="0 0 0 0 0.0972222 0 0 0 0 0.233333 0 0 0 0 0.583333 0 0 0 0.1 0"/>
<feBlend mode="normal" in2="BackgroundImageFix" result="effect1_dropShadow_2070_1230"/>
<feBlend mode="normal" in="SourceGraphic" in2="effect1_dropShadow_2070_1230" result="shape"/>
</filter>
</defs>
</svg>
