<svg xmlns="http://www.w3.org/2000/svg" xmlns:xlink="http://www.w3.org/1999/xlink" width="718" height="542" viewBox="0 0 718 542" fill="none">
<g filter="url(#filter0_d_2070_564)">
<mask id="mask0_2070_564" style="mask-type:alpha" maskUnits="userSpaceOnUse" x="128" y="50" width="540" height="375">
<rect x="128" y="50" width="540" height="374.197" rx="12" fill="#C4C4C4"/>
</mask>
<g mask="url(#mask0_2070_564)">
<rect x="118.781" y="29.5176" width="549.219" height="410.586" fill="url(#pattern0)"/>
</g>
</g>
<rect x="334" y="143" width="152" height="104" fill="white"/>
<rect x="150" y="143" width="152" height="104" fill="white"/>
<rect x="150" y="60" width="152" height="44" fill="white"/>
<rect x="504" y="143" width="152" height="104" fill="white"/>
<ellipse cx="226" cy="186.603" rx="35" ry="10.2586" fill="url(#paint0_linear_2070_564)"/>
<path d="M204.549 142.551C204.549 141.218 205.63 140.138 206.963 140.138H240.555C244.554 140.138 247.796 143.38 247.796 147.379V181.172C247.796 185.172 244.554 188.414 240.555 188.414H206.963C205.63 188.414 204.549 187.333 204.549 186V142.551Z" fill="#FF8166"/>
<path opacity="0.5" d="M204.549 142.551C204.549 141.218 205.63 140.138 206.963 140.138H209.578V188.414H206.963C205.63 188.414 204.549 187.333 204.549 186V142.551Z" fill="white"/>
<path d="M230 159.563V147.495C230 146.939 230.45 146.49 231.006 146.49H240.644C241.199 146.49 241.65 146.94 241.65 147.496V159.559C241.65 160.337 240.805 160.821 240.134 160.427L236.335 158.195C236.02 158.01 235.63 158.01 235.315 158.195L231.516 160.427C230.845 160.821 230 160.341 230 159.563Z" fill="white"/>
<path d="M198.664 223.808V225.104H205.312V238.4H206.656V225.104H212.992V223.808H206.656V216.416H205.312V223.808H198.664ZM193.696 216.704L192.76 217.592C194.536 218.936 195.952 220.232 197.008 221.432L197.896 220.52C196.744 219.248 195.352 217.976 193.696 216.704ZM191.128 223.928V225.2H194.8V235.328C194.8 235.616 194.632 235.904 194.344 236.192L194.848 237.344C196.528 236.24 198.088 234.968 199.528 233.552L199.192 232.208C198.064 233.288 197.032 234.2 196.072 234.968V223.928H191.128ZM229.624 218.552V233.6H230.896V218.552H229.624ZM233.704 238.112C235.048 238.112 235.744 237.416 235.744 236.072V216.536H234.448V235.736C234.448 236.552 234.04 236.96 233.248 236.96C232.192 236.96 231.112 236.936 229.96 236.888L230.248 238.112H233.704ZM227.008 221.96L219.976 223.064C219.808 221.12 219.736 218.936 219.736 216.512H218.44C218.44 219.008 218.536 221.264 218.728 223.256L215.368 223.784L215.536 225.032L218.848 224.504C219.016 226.28 219.28 227.84 219.616 229.16C219.904 230.24 220.192 231.248 220.528 232.184C218.944 233.696 217.096 234.872 215.008 235.688L215.752 236.864C217.672 236.048 219.448 234.944 221.056 233.504C221.44 234.416 221.872 235.232 222.352 235.904C223.432 237.416 224.512 238.184 225.568 238.184C226.144 238.184 226.672 237.68 227.104 236.672C227.464 235.808 227.8 234.776 228.112 233.552L227.032 232.808C226.504 235.4 225.976 236.768 225.496 236.864C224.752 236.84 223.912 236.096 222.976 234.656C222.64 234.08 222.304 233.384 222.016 232.592C223.792 230.768 225.304 228.488 226.528 225.776L225.376 225.176C224.32 227.528 223.048 229.52 221.512 231.2C221.224 230.336 220.96 229.352 220.72 228.272C220.456 227.096 220.24 225.776 220.096 224.312L227.224 223.208L227.008 221.96ZM222.928 216.44L221.848 216.968C222.76 218.024 223.6 219.2 224.416 220.52L225.544 219.944C224.728 218.672 223.864 217.496 222.928 216.44ZM248.008 216.344V220.688H240.688V221.96H248.008V227.144H239.296V228.416H248.008V238.376H249.304V228.416H258.016C257.944 231.68 257.704 233.576 257.32 234.056C256.984 234.44 256.408 234.656 255.592 234.68H253.432L253.792 235.904H255.376C255.856 235.88 256.312 235.832 256.792 235.76C257.416 235.616 257.896 235.352 258.208 235.016C258.928 234.248 259.288 231.608 259.288 227.144H255.832L256.36 221.312V220.688H249.304V216.344H248.008ZM249.304 227.144V221.96H255.064L254.584 227.144H249.304ZM255.448 216.488L254.776 217.472C256.456 218.336 258.088 219.512 259.672 221L260.392 219.944C258.904 218.576 257.248 217.424 255.448 216.488Z" fill="#333333"/>
<path fill-rule="evenodd" clip-rule="evenodd" d="M581 126C596.704 126 610.19 128.538 616.026 132.958C617.744 134.079 619.296 135.372 620.642 136.805C625.951 141.66 629 152.905 629 166C629 179.087 625.955 190.325 620.651 195.188C619.305 196.62 617.754 197.913 616.035 199.035C610.208 203.459 596.714 206 581 206C565.296 206 551.81 203.462 545.974 199.042C544.256 197.921 542.704 196.628 541.358 195.195C536.049 190.34 533 179.095 533 166C533 152.913 536.045 141.675 541.349 136.812C542.695 135.38 544.246 134.087 545.965 132.965C551.793 128.541 565.286 126 581 126Z" fill="white"/>
<ellipse cx="581" cy="185.5" rx="35" ry="10.2586" fill="url(#paint1_linear_2070_564)"/>
<path d="M567.152 216.496V227.296H572.216V230.512H566.672V231.736H572.216V235.312H565.616V236.584H579.968V235.312H573.512V231.736H579.056V230.512H573.512V227.296H578.576V216.496H567.152ZM577.304 226.12H573.512V222.496H577.304V226.12ZM572.216 226.12H568.4V222.496H572.216V226.12ZM568.4 221.368V217.672H572.216V221.368H568.4ZM573.512 217.672H577.304V221.368H573.512V217.672ZM558.536 224.488V225.76H561.368V232.144C560.312 232.48 559.208 232.744 558.056 232.984L558.368 234.208C560.936 233.584 563.336 232.816 565.544 231.88V230.608C564.632 230.992 563.672 231.376 562.664 231.736V225.76H565.52V224.488H562.664V218.392H565.808V217.144H558.2V218.392H561.368V224.488H558.536ZM590.552 216.592H583.208V231.76H584.384V217.792H589.4V231.4H590.552V216.592ZM586.376 219.88V227.632C586.328 229.864 586.016 231.688 585.392 233.104C584.672 234.472 583.496 235.552 581.84 236.32L582.536 237.376C584.24 236.536 585.464 235.384 586.232 233.944C587 232.36 587.384 230.272 587.432 227.632V219.88H586.376ZM588.416 232.264L587.624 233.032C589.016 234.472 590.12 235.816 590.96 237.112L591.824 236.248C590.912 234.904 589.76 233.584 588.416 232.264ZM592.16 217.96V219.208H603.224V217.96H598.496C598.16 216.976 597.824 216.088 597.488 215.32L596.192 215.56C596.576 216.28 596.912 217.072 597.224 217.96H592.16ZM591.8 224.512V225.76H603.776V224.512H600.464C601.088 223.408 601.64 222.112 602.144 220.672L600.896 220.24C600.416 221.752 599.864 223.168 599.216 224.512H596.408C595.928 222.856 595.4 221.464 594.824 220.312L593.624 220.768C594.224 221.92 594.728 223.168 595.112 224.512H591.8ZM602.288 228.376H593.336V237.232H594.584V235.84H601.064V237.232H602.288V228.376ZM594.584 234.592V229.6H601.064V234.592H594.584Z" fill="#333333"/>
<path d="M577.566 142.46C580.328 140.933 583.688 140.965 586.42 142.543L600.033 150.402C602.818 152.01 604.533 154.981 604.533 158.196V173.804C604.533 177.019 602.818 179.99 600.033 181.598L586.42 189.457C583.688 191.035 580.328 191.067 577.566 189.54L563.146 181.568C560.279 179.984 558.5 176.967 558.5 173.692V158.308C558.5 155.033 560.279 152.016 563.146 150.432L577.566 142.46Z" fill="#FF8166"/>
<path d="M590.836 163.23L591.49 159.685H592.571V156.844H588.749L588.247 154.481L585.305 154.632L585.833 156.844H581.684V159.685H582.967L583.444 163.23H581.332V166.172H593.401V163.23H590.836ZM573.471 158.554H577.268V170.27H579.732V155.637H571.058V170.572H573.471V158.554ZM576.514 159.56L574.251 159.434V165.543C574.251 170.371 573.145 172.231 569.6 175.122L571.561 177.335C573.396 175.625 574.628 174.318 575.407 172.709C576.514 173.941 577.771 175.474 578.5 176.556L580.385 174.343C579.581 173.312 577.469 171.175 576.262 169.968C576.438 168.887 576.514 167.706 576.514 166.273V159.56ZM585.757 159.685H588.749L588.071 163.23H586.21L585.757 159.685ZM581.936 176.556H592.169V167.58H581.936V176.556ZM584.601 170.446H589.554V173.689H584.601V170.446Z" fill="white"/>
<path fill-rule="evenodd" clip-rule="evenodd" d="M408 127C423.704 127 437.19 129.538 443.026 133.958C444.744 135.079 446.296 136.372 447.642 137.805C452.951 142.66 456 153.905 456 167C456 180.087 452.955 191.325 447.651 196.188C446.305 197.62 444.754 198.913 443.035 200.035C437.208 204.459 423.714 207 408 207C392.296 207 378.81 204.462 372.974 200.042C371.256 198.921 369.704 197.628 368.358 196.195C363.049 191.34 360 180.095 360 167C360 153.913 363.045 142.675 368.349 137.812C369.695 136.38 371.246 135.087 372.965 133.965C378.793 129.541 392.286 127 408 127Z" fill="white"/>
<ellipse cx="408" cy="186.5" rx="35" ry="10.2586" fill="url(#paint2_linear_2070_564)"/>
<path opacity="0.5" d="M383 167C383 163.686 385.686 161 389 161H427C430.314 161 433 163.686 433 167V171C433 174.314 430.314 177 427 177H389C385.686 177 383 174.314 383 171V167Z" fill="#18DACA"/>
<path opacity="0.5" fill-rule="evenodd" clip-rule="evenodd" d="M409 143V137C409 136.039 407.776 135.631 407.2 136.4L401.2 144.4C400.705 145.059 401.176 146 402 146H406V153.88C406 154.852 407.248 155.252 407.814 154.461L414.87 144.581C415.343 143.919 414.87 143 414.057 143H409Z" fill="#18DACA"/>
<path d="M387 159C387 152.925 391.925 148 398 148H418C424.075 148 429 152.925 429 159V183C429 186.866 425.866 190 422 190H394C390.134 190 387 186.866 387 183V159Z" fill="#18DACA"/>
<circle cx="398" cy="167" r="3" fill="white"/>
<circle cx="417" cy="167" r="3" fill="white"/>
<path d="M403.758 176.243C404.844 177.328 406.344 178 408 178C409.657 178 411.157 177.328 412.243 176.243" stroke="white" stroke-width="4" stroke-linecap="round"/>
<path d="M366.072 225.704C366.888 226.808 367.848 228.32 368.976 230.192L369.696 229.112C368.472 227.336 367.272 225.728 366.072 224.288V222.536H369.048V221.312H366.072V216.488H364.8V221.312H361.344V222.536H364.752C364.032 225.944 362.76 228.968 360.984 231.608L361.512 232.952C362.904 230.744 363.984 228.296 364.8 225.56V238.328H366.072V225.704ZM369.768 219.2V220.424H374.712C373.056 223.256 371.712 224.984 370.704 225.632C370.656 225.68 370.56 225.704 370.44 225.752L370.728 226.856C372.744 226.76 374.64 226.664 376.44 226.568C374.4 228.968 371.856 230.696 368.784 231.8L369.504 232.904C374.16 231.176 377.688 227.936 380.112 223.184L379.032 222.608C378.528 223.592 377.952 224.528 377.328 225.416C375.672 225.536 373.992 225.632 372.312 225.728C373.344 224.768 374.592 222.992 376.08 220.424H382.632V219.2H377.232C376.872 218.144 376.488 217.232 376.08 216.416L374.784 216.656C375.216 217.424 375.624 218.264 375.96 219.2H369.768ZM377.376 233.288C379.224 234.968 380.712 236.6 381.84 238.184L382.776 237.248C381.528 235.64 379.992 234.056 378.192 232.496C379.8 230.864 381.216 228.944 382.416 226.736L381.312 226.16C378.432 231.488 374.16 235.112 368.448 236.984L369.192 238.112C372.312 237.008 375.048 235.4 377.376 233.288ZM390.432 216.344C389.28 220.112 387.384 223.496 384.792 226.472L385.2 227.864C386.28 226.712 387.264 225.512 388.128 224.216V238.4H389.448V222.032C390.312 220.448 391.056 218.744 391.656 216.92L390.432 216.344ZM393.336 217.592V224.864H398.256V227.84H391.416V229.136H396.792C395.256 231.92 393.24 234.152 390.744 235.856L391.488 237.032C394.032 235.16 396.168 232.52 397.848 229.136H398.256V238.352H399.552V229.136H399.936C401.568 232.28 403.632 234.896 406.176 236.96L406.992 235.832C404.448 233.984 402.456 231.752 400.992 229.136H406.584V227.84H399.552V224.864H404.472V217.592H393.336ZM403.176 223.592H394.632V218.84H403.176V223.592ZM418.584 217.952H410.832V234.56L409.08 234.896L409.416 236.144C413.568 235.328 417.192 234.416 420.264 233.432V232.184C419.712 232.328 419.16 232.496 418.584 232.688V217.952ZM412.104 234.296V229.4H417.312V233.048C415.656 233.48 413.928 233.912 412.104 234.296ZM412.104 228.224V224.192H417.312V228.224H412.104ZM412.104 222.992V219.176H417.312V222.992H412.104ZM423.288 216.56V221.528H420.144V222.776H423.288V223.208C423.24 229.784 421.608 234.56 418.44 237.536L419.424 238.424C422.784 235.208 424.512 230.144 424.584 223.208V222.776H428.688C428.64 229.256 428.544 233.192 428.352 234.536C428.136 236.12 427.32 236.936 425.928 236.936C425.304 236.936 424.56 236.912 423.72 236.888L424.032 238.016C424.992 238.064 425.664 238.088 426.048 238.088C428.16 238.088 429.36 237.032 429.6 234.944C429.816 233.216 429.936 228.752 429.936 221.528H424.584V216.56H423.288ZM452.16 216.704C447.648 217.832 441.84 218.408 434.784 218.432L435.216 219.608C438.288 219.608 441.168 219.488 443.808 219.272V223.64H435.288V224.936H443.808V229.256H433.272V230.528H443.808V235.784C443.808 236.576 443.4 236.984 442.608 236.984C441.456 236.984 440.28 236.936 439.056 236.888L439.344 238.136H443.064C444.408 238.136 445.08 237.44 445.08 236.096V230.528H454.752V229.256H445.08V224.936H452.928V223.64H445.08V219.152C447.984 218.864 450.552 218.408 452.784 217.808L452.16 216.704Z" fill="#333333"/>
<path d="M174.872 79.184V93.776H165.272V95.984H186.752V93.776H177.176V79.184H185.24V77H166.832V79.184H174.872ZM207.464 76.112H192.536V90.752H189.272V92.888H195.464C193.832 93.92 191.864 94.856 189.56 95.696L190.952 97.52C193.64 96.488 195.92 95.288 197.744 93.92L196.568 92.888H202.928L202.136 94.088C204.536 94.904 206.888 96.032 209.192 97.472L210.464 95.504C208.712 94.52 206.816 93.656 204.752 92.888H210.728V90.752H207.464V76.112ZM194.816 90.752V88.976H205.184V90.752H194.816ZM194.816 87.152V85.376H205.184V87.152H194.816ZM194.816 83.552V81.728H205.184V83.552H194.816ZM194.816 79.952V78.248H205.184V79.952H194.816ZM225.152 83.792C227.72 84.656 230.24 85.808 232.712 87.248L233.936 85.352C231.296 84.152 228.368 83.144 225.152 82.28V82.04H234.2V79.904H225.152V75.296H222.848V79.904H213.8V82.04H220.76C219.392 83.336 217.04 84.512 213.68 85.568L214.904 87.536C218.744 86 221.384 84.152 222.848 82.04V86.168H225.152V83.792ZM223.808 91.592C226.016 94.376 229.28 96.344 233.6 97.52L234.752 95.504C231.008 94.64 228.056 93.152 225.896 91.064H234.392V88.928H224.816C224.984 88.28 225.128 87.608 225.224 86.888H222.92C222.824 87.608 222.656 88.28 222.464 88.928H213.608V91.064H221.456C221.144 91.544 220.76 92 220.304 92.408C218.864 93.68 216.512 94.664 213.296 95.36L214.184 97.472C217.976 96.56 220.64 95.36 222.176 93.824C222.8 93.176 223.328 92.432 223.808 91.592ZM218.36 75.656L216.392 76.304C217.112 77.336 217.736 78.416 218.216 79.52L220.136 79.04C219.608 77.744 219.032 76.616 218.36 75.656ZM229.616 75.608C229.088 76.904 228.464 77.984 227.744 78.848L229.64 79.52C230.456 78.536 231.104 77.408 231.608 76.112L229.616 75.608Z" fill="#333333"/>
<g filter="url(#filter1_d_2070_564)">
<mask id="mask1_2070_564" style="mask-type:alpha" maskUnits="userSpaceOnUse" x="50" y="254" width="580" height="238">
<rect x="50" y="254" width="580" height="238" rx="12" fill="#C4C4C4"/>
</mask>
<g mask="url(#mask1_2070_564)">
<rect x="34" y="236" width="612.68" height="275" fill="url(#pattern1)"/>
</g>
</g>
<rect x="74" y="362" width="152" height="104" fill="white"/>
<rect x="269" y="362" width="152" height="104" fill="white"/>
<rect x="464" y="362" width="152" height="104" fill="white"/>
<ellipse cx="532" cy="406.5" rx="35" ry="10.2586" fill="url(#paint3_linear_2070_564)"/>
<rect opacity="0.5" x="544" y="362" width="8" height="15" rx="4" fill="#6791FC"/>
<path d="M511.5 377.695C511.5 374.958 512.899 372.411 515.209 370.943L529.709 361.727C532.328 360.063 535.672 360.063 538.291 361.727L552.791 370.943C555.101 372.411 556.5 374.958 556.5 377.695V402.3C556.5 406.166 553.366 409.3 549.5 409.3H518.5C514.634 409.3 511.5 406.166 511.5 402.3V377.695Z" fill="#749BFF"/>
<path d="M536.186 380.664C537.278 379.983 538.371 379.937 539.1 380.044C539.576 380.113 540.044 380.241 540.494 380.427C541.589 380.88 542.527 381.655 543.187 382.653C543.847 383.651 544.2 384.827 544.2 386.031C544.202 386.975 543.986 387.907 543.569 388.751C543.151 389.594 542.545 390.326 541.798 390.887L535.075 396.526C534.701 396.839 534.23 397.007 533.745 397C533.261 396.992 532.795 396.809 532.431 396.484L525.883 390.629C525.229 390.061 524.704 389.357 524.345 388.563C523.985 387.769 523.799 386.905 523.8 386.031C523.8 384.827 524.152 383.651 524.812 382.653C525.473 381.655 526.41 380.88 527.505 380.427C529.628 379.643 533.271 380.323 534.364 383.727" stroke="white" stroke-width="4" stroke-linecap="round"/>
<path d="M499.888 446.824C501.016 450.184 502.936 452.92 505.648 455.08L506.56 454C503.968 452.128 502.096 449.608 500.944 446.44C502.432 445.84 503.824 445.096 505.12 444.208L504.232 443.344C502.168 444.712 499.96 445.72 497.608 446.344C497.08 445.24 496.36 444.208 495.448 443.272C496.168 442.84 496.912 442.36 497.68 441.832H503.248V440.608H488.776V441.832H495.808C494.896 442.384 493.888 442.912 492.784 443.392C490.984 444.16 488.896 444.832 486.52 445.384L487.216 446.464C489.808 445.744 491.968 444.976 493.696 444.184C493.936 444.064 494.2 443.944 494.464 443.8C494.896 444.256 495.28 444.76 495.64 445.288C493.432 447.064 490.264 448.504 486.136 449.632L486.76 450.76C490.744 449.608 493.912 448.096 496.216 446.248C496.552 446.896 496.84 447.592 497.032 448.36C494.44 450.592 490.72 452.416 485.824 453.856L486.472 454.984C491.032 453.592 494.656 451.816 497.32 449.632C497.392 450.136 497.44 450.664 497.464 451.24C497.464 452.872 497.224 453.952 496.792 454.504C496.408 454.936 495.472 455.152 494.008 455.176H492.904L493.336 456.304H494.176C496.192 456.304 497.44 455.896 497.968 455.128C498.448 454.408 498.712 453.112 498.712 451.24C498.664 449.848 498.448 448.576 498.04 447.376C498.664 447.232 499.264 447.04 499.888 446.824ZM496.096 434.296L494.776 434.512C495.088 435.184 495.4 435.904 495.688 436.72H485.968V440.656H487.264V437.944H504.712V440.656H506.008V436.72H496.96C496.696 435.808 496.408 435.016 496.096 434.296ZM520.624 445.168V446.344H524.752V450.808H520.984V452.008H529.816V450.808H526.024V446.344H530.176V445.168H526.024V441.232C527.416 440.992 528.64 440.608 529.72 440.128L529.096 439.048C526.864 440.008 524.008 440.488 520.528 440.512L520.912 441.64C522.28 441.64 523.552 441.568 524.752 441.424V445.168H520.624ZM513.808 439.96V441.16H517.696C516.688 442.792 515.56 444.28 514.312 445.648V446.584H518.08C517.936 448.528 517.456 450.208 516.592 451.6C515.848 450.664 515.2 449.464 514.648 447.976L513.592 448.384C514.216 450.088 514.984 451.48 515.896 452.584C515.08 453.568 514 454.384 512.68 455.032L513.328 456.16C514.72 455.464 515.848 454.576 516.76 453.496C517.264 453.952 517.816 454.336 518.44 454.624C520.408 455.512 523.528 455.968 527.848 455.968H530.656L530.896 454.672C529.648 454.72 528.448 454.768 527.272 454.768C523.576 454.768 520.864 454.384 519.136 453.64C518.536 453.376 517.984 453.016 517.456 452.56C518.56 450.832 519.16 448.72 519.256 446.2V445.504H515.944C516.952 444.328 518.032 442.84 519.136 441.016V439.96H513.808ZM520.624 434.32L519.28 434.56C519.688 435.184 520.048 435.856 520.384 436.6H511.072V445.288C511.024 449.56 510.4 452.92 509.2 455.32L510.16 456.184C511.552 453.448 512.296 449.824 512.368 445.288V437.848H530.584V436.6H521.704C521.368 435.736 521.008 434.992 520.624 434.32ZM533.704 438.112V439.384H540.496C540.472 440.2 540.424 441.448 540.352 443.152C540.208 445.456 539.752 447.544 538.936 449.416C538.048 451.288 536.32 453.304 533.776 455.464L534.736 456.376C536.8 454.672 538.456 452.824 539.656 450.808C540.52 449.152 541.096 447.328 541.384 445.336H550.216C550.216 448.672 550.144 450.904 550 452.056C549.712 453.928 548.872 454.912 547.48 454.984C546.664 454.984 545.656 454.936 544.456 454.888L544.84 456.088C545.92 456.136 546.856 456.16 547.624 456.16C549.52 456.088 550.672 454.984 551.08 452.824C551.344 451.432 551.488 448.528 551.536 444.088H541.528C541.528 443.992 541.552 443.92 541.552 443.848C541.672 441.856 541.744 440.368 541.792 439.384H554.536V438.112H545.512C544.936 436.672 544.288 435.424 543.592 434.392L542.344 434.848C543.064 435.856 543.688 436.96 544.192 438.112H533.704ZM566.416 438.232C565.888 438.952 565.36 439.696 564.808 440.464H558.52V441.544H563.968C563.392 442.264 562.768 442.984 562.144 443.704C563.896 444.04 565.648 444.424 567.4 444.88C565.192 445.72 562.168 446.152 558.352 446.152L559.072 447.208C563.2 447.16 566.536 446.536 569.08 445.312C571.528 445.96 574 446.728 576.448 447.616L577.192 446.608C574.864 445.816 572.608 445.144 570.4 444.568C571.48 443.824 572.488 442.816 573.424 441.544H577.528V440.464H566.248C566.68 439.912 567.136 439.288 567.616 438.616L566.416 438.232ZM568.888 444.184C567.256 443.752 565.648 443.416 564.064 443.128C564.472 442.672 564.928 442.144 565.408 441.544H572.032C571.24 442.552 570.184 443.416 568.888 444.184ZM577.552 436.48H568.816C568.504 435.688 568.192 434.992 567.856 434.368L566.488 434.608C566.872 435.16 567.208 435.784 567.544 436.48H558.448V439.672H559.672V437.584H576.328V439.672H577.552V436.48ZM557.776 448.864V450.016H566.128C564.688 451.696 561.832 453.208 557.56 454.528L558.256 455.68C562.744 454.096 565.768 452.224 567.304 450.016H567.4V456.328H568.696V450.016H568.768C570.52 452.296 573.592 454.12 577.96 455.512L578.512 454.384C574.576 453.328 571.744 451.864 569.968 450.016H578.248V448.864H568.696V446.872H567.4V448.864H557.776Z" fill="#333333"/>
<ellipse cx="149" cy="410.603" rx="35" ry="10.2586" fill="url(#paint4_linear_2070_564)"/>
<path d="M167.347 391.779C166.857 391.838 166.365 391.867 165.871 391.868C163.222 391.869 160.646 391.018 158.55 389.449C158.232 389.208 157.839 389.077 157.435 389.077C157.031 389.077 156.638 389.208 156.32 389.449C154.224 391.018 151.649 391.868 149 391.868C146.35 391.869 143.775 391.018 141.678 389.449C141.36 389.208 140.968 389.077 140.563 389.077C140.159 389.077 139.766 389.208 139.448 389.449C136.953 391.316 133.798 392.154 130.668 391.781C130.421 391.751 130.17 391.772 129.931 391.843C129.693 391.914 129.473 392.033 129.286 392.193C129.099 392.353 128.949 392.55 128.847 392.77C128.745 392.99 128.692 393.229 128.692 393.47V403.393C128.692 405.306 130.253 406.857 132.177 406.857H165.823C167.748 406.857 169.308 405.306 169.308 403.393V393.475C169.307 392.456 168.39 391.649 167.347 391.779Z" fill="#FF8166"/>
<path d="M172.333 376.299L168.527 368.863C168.086 368.001 167.414 367.278 166.587 366.773C165.759 366.267 164.808 366 163.837 366H134.163C133.192 366 132.241 366.267 131.413 366.773C130.586 367.278 129.914 368.001 129.473 368.863L125.667 376.299C123.554 381.127 126.682 386.833 131.949 387.259C133.394 387.379 134.845 387.113 136.153 386.49C137.462 385.867 138.58 384.909 139.395 383.713C139.551 383.482 139.762 383.293 140.009 383.162C140.256 383.031 140.531 382.963 140.81 382.963C141.09 382.963 141.365 383.031 141.612 383.162C141.859 383.293 142.07 383.482 142.226 383.713C143.699 385.87 146.183 387.287 149 387.287C151.817 387.287 154.3 385.87 155.774 383.713C155.93 383.482 156.141 383.293 156.388 383.162C156.635 383.031 156.91 382.963 157.19 382.963C157.469 382.963 157.744 383.031 157.991 383.162C158.238 383.293 158.449 383.482 158.605 383.713C159.42 384.909 160.538 385.867 161.847 386.49C163.155 387.113 164.606 387.379 166.051 387.259C171.318 386.833 174.446 381.127 172.333 376.299Z" fill="#FF8166"/>
<path d="M128.692 403H169.308V408.154C169.308 410.915 167.069 413.154 164.308 413.154H133.692C130.931 413.154 128.692 410.915 128.692 408.154V403Z" fill="#FF8166"/>
<rect x="137.927" y="400.211" width="22.1538" height="3.69231" rx="1.84615" transform="rotate(0.1 137.927 400.211)" fill="white"/>
<path d="M142.856 442.6H145.52C145.472 446.008 145.016 448.984 144.176 451.528C143.456 449.512 142.88 447.16 142.424 444.424C142.568 443.848 142.712 443.248 142.856 442.6ZM143.624 452.992C142.712 455.08 141.488 456.808 139.952 458.152L140.648 459.232C142.088 457.936 143.288 456.352 144.224 454.456C145.088 456.448 146.144 458.032 147.368 459.208L148.112 458.104C146.816 456.952 145.712 455.296 144.8 453.136C145.952 450.256 146.576 446.728 146.672 442.6H147.704V441.376H143.096C143.312 440.176 143.504 438.88 143.672 437.536L142.496 437.32C141.992 442.24 141.008 446.152 139.568 449.032L140.312 449.944C140.888 448.912 141.392 447.736 141.824 446.416C142.304 448.888 142.904 451.072 143.624 452.992ZM137.456 457.816C138.704 457 139.928 455.968 141.128 454.696L140.864 453.592C140.072 454.36 139.304 455.08 138.536 455.728V450.064H133.208V452.32C133.184 454.96 132.488 456.952 131.144 458.344L132.104 459.184C133.592 457.696 134.384 455.392 134.432 452.32V451.264H137.36V456.112C137.312 456.376 137.168 456.568 136.928 456.712L137.456 457.816ZM135.512 437.464V443.008H133.424V438.712H132.32V444.16H139.784V438.712H138.68V443.008H136.64V437.464H135.512ZM130.064 437.584C129.2 439.792 127.808 441.76 125.888 443.536L126.272 444.808C128.504 442.912 130.136 440.68 131.168 438.088L130.064 437.584ZM130.184 443.992C129.344 446.368 127.928 448.504 125.96 450.424L126.344 451.672C127.232 450.856 128.048 449.992 128.768 449.056V459.424H129.992V447.232C130.496 446.368 130.928 445.456 131.312 444.496L130.184 443.992ZM132.224 446.632V447.832H139.592V446.632H132.224ZM161.792 442.408V450.592H156.2V459.328H157.496V458.032H168.128V459.328H169.424V450.592H163.064V446.728H171.224V445.48H163.064V442.408H161.792ZM157.496 456.784V451.816H168.128V456.784H157.496ZM161.504 437.32L160.16 437.56C160.616 438.28 161.048 439.072 161.432 439.96H152.456V446.68C152.384 451.672 151.616 455.56 150.128 458.344L151.112 459.232C152.792 456.088 153.656 451.912 153.752 446.68V441.208H171.608V439.96H162.752C162.368 438.976 161.936 438.088 161.504 437.32Z" fill="#333333"/>
<ellipse cx="343" cy="406.707" rx="35" ry="10.2586" fill="url(#paint5_linear_2070_564)"/>
<path d="M362.691 365.379C356.021 362.716 350.907 360 343.087 360C335.267 360 330.152 362.716 323.482 365.379C321.297 366.251 320.087 368.326 320.087 369.832V389.389C320.087 400.853 336.187 406.832 341.592 409.495C342.052 409.726 342.627 409.842 343.087 409.842C343.547 409.842 344.122 409.726 344.582 409.495C349.987 406.832 366.087 400.853 366.087 389.389V369.832C366.087 368.326 364.876 366.251 362.691 365.379Z" fill="#30B4FF"/>
<path fill-rule="evenodd" clip-rule="evenodd" d="M330.593 373H338.996C341.86 373 344.182 375.451 344.182 378.475C344.182 381.499 341.86 383.95 338.996 383.95H333.454L332.4 391.459L328.5 391.431L330.111 380.3H338.996C339.951 380.3 340.725 379.483 340.725 378.475C340.725 377.467 339.951 376.65 338.996 376.65H333.985C332.008 376.65 330.448 374.971 330.593 373Z" fill="white"/>
<path d="M345.645 375.94C345.759 374.859 346.518 373.956 347.563 373.658L349.866 373L348.221 388.56C348.106 389.641 347.348 390.544 346.303 390.842L344 391.5L345.645 375.94Z" fill="white"/>
<path d="M360.211 373H356.269C355.85 373 355.455 373.197 355.203 373.533L350.27 380.11C349.312 381.388 349.206 383.113 350.001 384.498L353.875 391.248H358.483L354.172 383.737C353.642 382.814 353.713 381.663 354.352 380.812L360.211 373Z" fill="white"/>
<path d="M306.88 434.128L305.536 434.344C305.968 435.136 306.376 436.024 306.76 437.032H297.736V438.28H302.224L303.328 442.336H298.384V447.376C298.312 450.808 297.544 453.496 296.08 455.44L297.04 456.328C298.72 454.072 299.608 451.096 299.704 447.376V443.608H317.08V442.336H311.008C311.608 441.04 312.04 439.672 312.328 438.28H316.576V437.032H308.056C307.696 435.928 307.312 434.968 306.88 434.128ZM304.648 442.336L303.52 438.28H311.056C310.816 439.696 310.384 441.04 309.76 442.336H304.648ZM324.496 435.592V443.056H337.456V435.592H324.496ZM336.136 441.808H325.816V436.84H336.136V441.808ZM329.464 445.888H321.376V455.968H322.648V454.696H328.192V455.968H329.464V445.888ZM322.648 453.472V447.112H328.192V453.472H322.648ZM340.624 445.888H332.272V455.968H333.544V454.696H339.328V455.968H340.624V445.888ZM333.544 453.472V447.112H339.328V453.472H333.544ZM354.496 439.216V440.488H361.576V453.784C361.576 454.648 361.144 455.104 360.28 455.104C359.104 455.104 357.88 455.056 356.584 455.008L356.872 456.256H360.736C362.176 456.256 362.896 455.536 362.896 454.12V440.488H365.728V439.216H362.896V434.416H361.576V439.216H354.496ZM345.688 440.656L344.776 441.496C346.504 443.416 348.088 445.288 349.48 447.136C348.184 449.608 346.384 451.768 344.08 453.592L344.824 454.72C347.128 452.848 348.952 450.688 350.296 448.24C351.256 449.584 352.144 450.904 352.912 452.2L353.872 451.24C352.984 449.824 352 448.408 350.944 446.968C352.168 444.28 352.864 441.28 353.056 437.944V436.984H345.136V438.256H351.856C351.64 441.016 351.04 443.536 350.08 445.84C348.736 444.112 347.272 442.384 345.688 440.656ZM355.528 443.632L354.52 444.328C356.056 446.176 357.304 447.952 358.312 449.68L359.344 448.96C358.456 447.424 357.184 445.648 355.528 443.632ZM381.184 443.896C383.752 443.176 386.44 442.12 389.224 440.68L388.48 439.624C386.08 440.944 383.632 441.952 381.184 442.624V434.752H379.912V453.52C379.912 454.96 380.608 455.68 382 455.68H386.44C387.304 455.656 387.952 455.416 388.408 454.936C388.912 454.312 389.248 452.68 389.44 450.016L388.216 449.608C388.096 452.08 387.808 453.544 387.376 454C387.064 454.264 386.632 454.408 386.104 454.408H382.36C381.568 454.408 381.184 454.024 381.184 453.304V443.896ZM370.168 455.968C373.096 455.344 375.832 454.6 378.4 453.76L378.064 452.512C375.928 453.256 373.768 453.88 371.584 454.36V443.08H377.872V441.784H371.584V434.92H370.264V454C370.264 454.336 370.096 454.576 369.76 454.768L370.168 455.968Z" fill="#333333"/>
<rect x="74" y="275" width="152" height="44" fill="white"/>
<path d="M82.608 283.288V285.424H86.568V295.84H82.176V297.952H103.848V295.84H99.432V285.424H103.392V283.288H99.432V281.272H97.104V283.288H88.896V281.272H86.568V283.288H82.608ZM88.896 295.84V293.584H97.104V295.84H88.896ZM88.896 291.64V289.504H97.104V291.64H88.896ZM88.896 287.56V285.424H97.104V287.56H88.896ZM89.448 298.216C87.576 299.488 85.248 300.616 82.512 301.576L83.952 303.424C86.784 302.344 89.136 301.096 91.056 299.656L89.448 298.216ZM96.264 298.312L95.112 300.04C97.536 300.856 99.912 301.984 102.24 303.424L103.488 301.456C101.328 300.232 98.904 299.176 96.264 298.312ZM110.88 281.128C109.776 284.848 108.048 288.112 105.696 290.944L106.44 293.272C107.208 292.408 107.928 291.544 108.6 290.656V303.52H110.832V287.128C111.696 285.52 112.392 283.84 112.944 282.088L110.88 281.128ZM124.632 303.016C125.832 303.016 126.648 302.752 127.128 302.224C127.56 301.696 127.848 300.16 128.016 297.64L125.856 296.92C125.784 298.888 125.64 300.016 125.424 300.352C125.184 300.664 124.776 300.832 124.248 300.832H117.048C116.28 300.832 115.896 300.448 115.896 299.728V290.32L118.896 289.384V298.168H121.152V288.688L124.104 287.776C124.08 290.776 124.032 292.504 123.984 292.984C123.912 293.512 123.72 293.776 123.384 293.776C122.952 293.776 122.472 293.752 121.944 293.728L122.616 295.936H122.904C124.728 295.936 125.784 295.384 126.024 294.28C126.264 293.152 126.408 289.936 126.408 284.656L121.152 286.312V281.296H118.896V287.032L115.896 287.968V283.528H113.616V288.688L111.648 289.312V291.64L113.616 291.04V300.04C113.616 302.008 114.576 303.016 116.496 303.016H124.632ZM133.608 289.84H136.968V293.344H133.608V289.84ZM136.968 287.8H133.608V284.248H136.968V287.8ZM133.56 295.408H136.968V300.232C136.968 301.072 136.704 301.504 136.2 301.504C135.624 301.504 135.024 301.456 134.352 301.384L134.904 303.4H136.824C138.288 303.4 139.032 302.584 139.032 300.952V282.184H131.568V293.968C131.544 297.208 131.064 299.872 130.104 301.96L131.832 303.52C132.816 301.384 133.392 298.672 133.56 295.408ZM142.8 293.032H143.112C143.64 295.264 144.6 297.28 145.992 299.056C145.104 300.064 144.048 300.928 142.8 301.6V293.032ZM142.8 301.672L143.976 303.448C145.32 302.728 146.496 301.816 147.48 300.712C148.488 301.696 149.688 302.608 151.056 303.424L152.184 301.504C150.888 300.736 149.736 299.896 148.752 298.96C149.76 297.304 150.48 295.288 150.912 292.936V291.016H142.8V284.248H148.56C148.512 285.856 148.416 286.864 148.272 287.272C148.128 287.608 147.936 287.824 147.696 287.896C147.456 287.968 147.072 288.016 146.568 288.016C145.896 288.016 145.368 287.992 144.984 287.992L145.584 289.912H147.6C149.136 289.912 150.048 289.408 150.336 288.4C150.624 287.368 150.768 285.304 150.768 282.184H140.664V303.496H142.8V301.672ZM145.056 293.032H148.896C148.512 294.616 147.96 296.032 147.24 297.28C146.256 296.008 145.536 294.592 145.056 293.032ZM160.944 281.224C159.96 283.552 158.064 285.52 155.256 287.128L156.648 288.952C157.632 288.352 158.52 287.704 159.336 287.008C160.32 287.824 161.376 288.592 162.528 289.264C160.032 290.2 157.152 290.872 153.936 291.28L154.992 293.416C158.784 292.84 162.144 291.904 165.024 290.608C168 292.024 171.36 292.936 175.08 293.368L176.112 291.232C172.944 290.944 170.088 290.296 167.52 289.336C169.56 288.136 171.312 286.696 172.752 285.04V283.192H162.48C162.768 282.688 163.032 282.136 163.272 281.56L160.944 281.224ZM165 288.208C163.488 287.44 162.096 286.528 160.848 285.496C160.872 285.448 160.92 285.4 160.992 285.328H169.416C168.12 286.432 166.656 287.392 165 288.208ZM163.272 292.072C163.272 292.936 163.176 293.752 163.032 294.52H155.592V296.56H162.336C162.192 296.872 162 297.184 161.808 297.496C160.608 299.152 158.04 300.544 154.128 301.696L155.64 303.544C160.08 302.128 162.888 300.352 164.088 298.192C164.376 297.688 164.616 297.136 164.832 296.56H171.336C171.264 298.672 171.072 299.992 170.76 300.496C170.448 300.976 169.68 301.24 168.456 301.264C167.688 301.216 166.68 301.168 165.432 301.12L166.008 303.184C167.16 303.256 168.168 303.304 168.984 303.304C170.664 303.304 171.864 302.872 172.536 302.056C173.208 301.24 173.568 298.72 173.616 294.52H165.336C165.456 293.752 165.528 292.936 165.528 292.072H163.272Z" fill="#333333"/>
<defs>
<filter id="filter0_d_2070_564" x="78" y="0" width="640" height="474.197" filterUnits="userSpaceOnUse" color-interpolation-filters="sRGB">
<feFlood flood-opacity="0" result="BackgroundImageFix"/>
<feColorMatrix in="SourceAlpha" type="matrix" values="0 0 0 0 0 0 0 0 0 0 0 0 0 0 0 0 0 0 127 0" result="hardAlpha"/>
<feOffset/>
<feGaussianBlur stdDeviation="25"/>
<feComposite in2="hardAlpha" operator="out"/>
<feColorMatrix type="matrix" values="0 0 0 0 0.0972222 0 0 0 0 0.233333 0 0 0 0 0.583333 0 0 0 0.1 0"/>
<feBlend mode="normal" in2="BackgroundImageFix" result="effect1_dropShadow_2070_564"/>
<feBlend mode="normal" in="SourceGraphic" in2="effect1_dropShadow_2070_564" result="shape"/>
</filter>
<pattern id="pattern0" patternContentUnits="objectBoundingBox" width="1" height="1">
<use xlink:href="#image0_2070_564" transform="matrix(0.00138481 0 0 0.00185239 0 -0.227968)"/>
</pattern>
<filter id="filter1_d_2070_564" x="0" y="204" width="680" height="338" filterUnits="userSpaceOnUse" color-interpolation-filters="sRGB">
<feFlood flood-opacity="0" result="BackgroundImageFix"/>
<feColorMatrix in="SourceAlpha" type="matrix" values="0 0 0 0 0 0 0 0 0 0 0 0 0 0 0 0 0 0 127 0" result="hardAlpha"/>
<feOffset/>
<feGaussianBlur stdDeviation="25"/>
<feComposite in2="hardAlpha" operator="out"/>
<feColorMatrix type="matrix" values="0 0 0 0 0.0972222 0 0 0 0 0.233333 0 0 0 0 0.583333 0 0 0 0.1 0"/>
<feBlend mode="normal" in2="BackgroundImageFix" result="effect1_dropShadow_2070_564"/>
<feBlend mode="normal" in="SourceGraphic" in2="effect1_dropShadow_2070_564" result="shape"/>
</filter>
<pattern id="pattern1" patternContentUnits="objectBoundingBox" width="1" height="1">
<use xlink:href="#image0_2070_564" transform="matrix(0.00133333 0 0 0.00297057 -2.74067e-08 -1.89818)"/>
</pattern>
<linearGradient id="paint0_linear_2070_564" x1="191" y1="187.207" x2="261" y2="187.207" gradientUnits="userSpaceOnUse">
<stop stop-color="#FFE2D9"/>
<stop offset="1" stop-color="white" stop-opacity="0"/>
</linearGradient>
<linearGradient id="paint1_linear_2070_564" x1="546" y1="186.103" x2="616" y2="186.103" gradientUnits="userSpaceOnUse">
<stop stop-color="#FFE2D9"/>
<stop offset="1" stop-color="white" stop-opacity="0"/>
</linearGradient>
<linearGradient id="paint2_linear_2070_564" x1="373" y1="187.103" x2="443" y2="187.103" gradientUnits="userSpaceOnUse">
<stop stop-color="#D2FAF3"/>
<stop offset="1" stop-color="white" stop-opacity="0"/>
</linearGradient>
<linearGradient id="paint3_linear_2070_564" x1="497" y1="407.103" x2="567" y2="407.103" gradientUnits="userSpaceOnUse">
<stop stop-color="#D1E1FF"/>
<stop offset="1" stop-color="white" stop-opacity="0"/>
</linearGradient>
<linearGradient id="paint4_linear_2070_564" x1="114" y1="411.207" x2="184" y2="411.207" gradientUnits="userSpaceOnUse">
<stop stop-color="#FFE2D9"/>
<stop offset="1" stop-color="white" stop-opacity="0"/>
</linearGradient>
<linearGradient id="paint5_linear_2070_564" x1="308" y1="407.31" x2="378" y2="407.31" gradientUnits="userSpaceOnUse">
<stop stop-color="#CEEDFF"/>
<stop offset="1" stop-color="white" stop-opacity="0"/>
</linearGradient>

</defs>
</svg>