<svg xmlns="http://www.w3.org/2000/svg" width="42" height="42" fill="none"><path fill-rule="evenodd" clip-rule="evenodd" d="M15.279 16.959A8.016 8.016 0 1 1 26.614 5.623 8.016 8.016 0 0 1 15.28 16.958zm5.75 7.74 1.31-2.39-1.31-1.313-1.313 1.313 1.313 2.39zm13.468 1.214-.265-.17c-5.257-3.352-6.857-4.372-9.212-4.687.16.633.252 1.313.252 2.022 0 2.687-1.265 4.965-3.01 5.738V25.24h-2.315v3.696c-1.906-.629-3.32-3.015-3.32-5.858 0-.689.085-1.35.237-1.966-2.262.388-4.156 1.546-9.773 4.997-1.874 1.245-2.971 7.387-2.971 9.013 0 3.46 4.962 3.337 11.799 3.168 1.588-.04 3.277-.081 5.03-.081a201 201 0 0 1 5.028.08c6.837.17 11.8.293 11.8-3.167.004-1.714-1.218-7.928-3.28-9.21z" fill="url(#a)"/><defs><linearGradient id="a" x1="20.948" y1="3.275" x2="20.948" y2="38.358" gradientUnits="userSpaceOnUse"><stop stop-color="#C02A35"/><stop offset="1" stop-color="#C02A35"/></linearGradient></defs></svg>