<svg xmlns="http://www.w3.org/2000/svg" width="42" height="37" fill="none"><g clip-path="url(#a)"><path fill-rule="evenodd" clip-rule="evenodd" d="m30.106 1.963 9.483 9.356c2.307 2.306 2.564 4.87.641 6.792l-1.922 1.922a1.265 1.265 0 0 1-.897.385c-.32 0-.641-.128-.897-.385a1.265 1.265 0 0 1-.385-.897c0-.32.128-.64.385-.897l1.922-1.922c1.025-1.026.256-2.243-.64-3.14l-9.484-9.355c-.77-.77-1.282-.962-1.602-1.026-.257-.064-.577-.064-1.026.385l-3.716 3.652-5.447 5.383-1.025 1.025c-.064.128-.128.256-.128.385 0 .128 0 .256.128.384.484.484.968.787 1.414.948a9.266 9.266 0 0 1-.44-.157c.837.422 1.627.36 2.256.311l.165-.012c.897-.129 1.987-.513 2.756-1.218.769-.705 1.73-1.666 2.947-2.883.257-.193.577 0 .577 0l8.843 8.842c.897.897 1.281 1.987.897 3.14-.128.705-.449 1.025-.833 1.41-1.666 1.09-3.204-.385-3.204-.385L26.9 20.034c-.064-.129-.256-.193-.384-.193s-.257.064-.385.193c-.128.064-.192.256-.192.384s.064.256.192.384l4.934 5.127s1.025 1.281.128 2.499l-.128.128-.897.833-.32.256c-1.09.513-2.243-.705-2.243-.705L22.8 24.135c-.064-.129-.256-.193-.384-.193s-.257.064-.385.193c-.128.064-.192.256-.192.384s.064.256.192.385l4.55 4.549s1.153 1.41.192 2.5c-.128.127-.256.24-.384.351-.129.113-.257.225-.385.353-1.153.769-2.691-.577-2.691-.577l-4.23-4.165c-.063-.128-.256-.192-.384-.192s-.256.064-.384.192c-.129.064-.193.257-.193.385s.064.256.193.384l4.229 4.165s1.281 1.346.384 2.243l-.256.256c-.513.513-1.218.77-1.986.77h-.45c-.96-.129-1.921-.642-2.626-1.346L7.293 24.455c-1.463-1.463-2.231-2.66-2.89-3.686l-.186-.287-.192-.32c-.384-.705-.769-1.346-1.345-2.05a4.496 4.496 0 0 0-.513-.642C1.206 16.381.629 15.548.565 14.971v-.256c-.128-.769-.192-1.986 1.346-3.524l8.266-8.202a2.398 2.398 0 0 1 1.858-.833c.961 0 2.05.512 2.755.897l.257.128c.192.064.448.192.64.32l.257.129.475.246c.957.496 2.051 1.063 3.069 1.778l.686-.68 3.652-3.587c1.794-1.73 4.101-1.538 6.28.576zM17.162 15.035z" fill="url(#b)"/></g><defs><linearGradient id="b" x1="21.009" y1=".219" x2="21.009" y2="36.117" gradientUnits="userSpaceOnUse"><stop stop-color="#C02A35"/><stop offset="1" stop-color="#C02A35"/></linearGradient><clipPath id="a"><path fill="#fff" transform="translate(.5 .233)" d="M0 0h41v35.884H0z"/></clipPath></defs></svg>