<svg xmlns="http://www.w3.org/2000/svg" width="42" height="42" fill="none"><path fill-rule="evenodd" clip-rule="evenodd" d="m33.752 17.204.778-.778 2.08-2.07c.868 2.038 1.378 4.263 1.378 6.62 0 9.388-7.613 17.002-17.001 17.002-9.388 0-17.001-7.614-17.001-17.002 0-9.387 7.613-17 17.001-17 2.985 0 5.784.773 8.218 2.124l-2.502 2.503-.779.778.11 1.097.15 1.53-1.16 1.16-.287.286a8.311 8.311 0 0 0-3.75-.892c-4.637 0-8.41 3.773-8.41 8.41 0 4.637 3.773 8.41 8.41 8.41 4.637 0 8.41-3.773 8.41-8.41 0-.7-.096-1.379-.26-2.034l.828-.833 1.16-1.16 1.53.15 1.096.109zm-7.07-2.389 1.938-1.939-.255-2.625 5.142-5.142.405 4.122 4.123.405-5.147 5.147-2.625-.26-4.46 4.46c.255.615.4 1.284.4 1.989a5.215 5.215 0 0 1-5.206 5.21 5.218 5.218 0 0 1-5.21-5.21 5.21 5.21 0 0 1 5.206-5.206c1.315 0 2.503.51 3.422 1.315l2.266-2.266z" fill="url(#a)"/><defs><linearGradient id="a" x1="21.01" y1="3.975" x2="21.01" y2="37.978" gradientUnits="userSpaceOnUse"><stop stop-color="#C02A35"/><stop offset="1" stop-color="#C02A35"/></linearGradient></defs></svg>