<svg width="48" height="48" viewBox="0 0 48 48" fill="none" xmlns="http://www.w3.org/2000/svg">
<circle cx="24" cy="24" r="24" fill="white"/>
<path d="M36.9467 34.5313C38.0134 32.675 37.4225 31.2493 35.5336 29.8227C33.313 28.1457 31.1429 27.0177 29.5825 28.8246C29.5825 28.8246 27.9266 30.7959 23.0535 26.1829C17.387 20.7813 19.7652 18.8655 19.7652 18.8655C21.736 16.8842 20.4832 15.4061 18.8303 13.1676C17.1776 10.9291 15.508 10.2205 13.1112 12.1458C8.49239 15.856 15.0052 24.5676 18.298 27.9549L18.2979 27.9552C18.2979 27.9552 23.3052 33.1346 26.4562 34.8588L28.1419 35.8014C30.5596 37.0421 33.2752 37.61 35.1871 36.4579C35.1871 36.458 36.1087 35.9839 36.9467 34.5313Z" fill="#C02A35"/>
</svg>
