<svg xmlns="http://www.w3.org/2000/svg" width="40" height="40" viewBox="0 0 40 40" fill="none">
<path d="M20.1669 2.57484C12.7901 2.60786 6.81505 8.63622 6.84779 16.0139C6.87855 22.9364 17.9015 35.4122 19.1585 36.8115C19.3049 36.9749 19.4842 37.1055 19.6847 37.1946C19.8852 37.2837 20.1023 37.3292 20.3217 37.3283C20.5411 37.3273 20.7578 37.2799 20.9576 37.189C21.1573 37.0982 21.3355 36.966 21.4804 36.8013C22.725 35.3908 33.6368 22.8173 33.606 15.8945C33.5732 8.51712 27.5443 2.5421 20.1669 2.57484ZM20.2527 21.8272C17.2651 21.8405 14.8227 19.4204 14.8094 16.4325C14.7961 13.4445 17.2168 11.0027 20.2042 10.9897C23.193 10.9762 25.6348 13.3963 25.648 16.3839C25.6613 19.3721 23.2412 21.8137 20.2527 21.8272Z" fill="#C02A35"/>
</svg>