<svg width="60" height="60" viewBox="-10 -10 60 60" fill="none" xmlns="http://www.w3.org/2000/svg">
<circle cx="20" cy="20" r="18.2" stroke="#333333" stroke-width="3.6"/>
<path d="M27.675 26.4326C28.3323 25.2927 27.9682 24.4171 26.8042 23.5411C25.4358 22.5113 24.0985 21.8185 23.137 22.9282C23.137 22.9282 22.1165 24.1387 19.1136 21.3059C15.6217 17.9888 17.0872 16.8123 17.0872 16.8123C18.3017 15.5956 17.5297 14.688 16.5111 13.3133C15.4927 11.9386 14.4639 11.5035 12.9868 12.6858C10.1406 14.9642 14.154 20.3139 16.1831 22.3941L16.183 22.3943C16.183 22.3943 19.2687 25.5749 21.2104 26.6337L22.2492 27.2126C23.739 27.9745 25.4125 28.3232 26.5907 27.6157C26.5907 27.6158 27.1586 27.3247 27.675 26.4326Z" fill="#333333" stroke="#333333"/>
</svg>
