<svg xmlns="http://www.w3.org/2000/svg" width="124" height="143" viewBox="0 0 124 143" fill="none">
<path d="M62.4382 -7C60.1465 -7 57.5273 -7 55.2355 -6.67391C27.4069 -3.41304 4.48916 18.7609 0.560404 46.4783C-2.38616 68.3261 6.45353 89.1956 23.1507 102.565C24.7877 112.348 33.3 119.848 43.4493 119.848H80.445C90.5943 119.848 99.434 112.348 100.744 102.565C115.476 90.8261 123.989 73.5435 123.989 54.6304C124.643 20.7174 96.8148 -7 62.4382 -7ZM88.6299 96.0435V99.6304C88.6299 103.87 85.356 107.13 81.0998 107.13H68.9862V69.3044L72.5875 73.5435C73.8971 74.8478 75.5341 75.8261 77.4985 75.8261H77.8259C79.7902 75.8261 81.7546 74.5217 82.7368 72.8913L93.8683 55.2826C95.8326 52.3478 94.8504 48.1087 91.9039 46.1522C88.9573 44.1957 84.7012 45.1739 82.7368 48.1087L76.1889 58.2174L67.0218 47.4565C64.4026 44.5217 59.4917 44.5217 57.1999 47.4565L48.0328 58.2174L41.4849 48.1087C39.5205 45.1739 35.5918 44.1957 32.3178 46.1522C29.3713 48.1087 28.3891 52.0217 30.3534 55.2826L41.4849 72.8913C42.4671 74.5217 44.4315 75.8261 46.3958 75.8261C48.3602 75.8261 50.652 75.1739 51.9616 73.5435L55.5629 69.3044V107.13H43.4493C39.1931 107.13 35.9192 103.87 35.9192 99.6304V96.0435C20.5316 86.2609 10.7097 68.3261 13.3288 48.4348C16.6028 26.2609 34.6096 8.97826 56.8725 6.36957C58.5095 6.04348 60.4739 6.04348 62.4382 6.04348C89.6121 6.04348 111.548 27.8913 111.548 54.6304C111.548 72.2391 102.381 87.2391 88.6299 96.0435ZM78.808 129.957H46.0684C42.4671 129.957 39.5205 132.891 39.5205 136.478C39.5205 140.065 42.4671 143 46.0684 143H78.808C82.4094 143 85.356 140.065 85.356 136.478C85.356 132.891 82.4094 129.957 78.808 129.957Z" fill="url(#paint0_linear_2063_774)" fill-opacity="0.1"/>
<defs>
<linearGradient id="paint0_linear_2063_774" x1="62" y1="-7" x2="62" y2="143" gradientUnits="userSpaceOnUse">
<stop stop-color="white"/>
<stop offset="1" stop-color="white" stop-opacity="0"/>
</linearGradient>
</defs>
</svg>