<svg xmlns="http://www.w3.org/2000/svg" width="118" height="114" viewBox="0 0 118 114" fill="none">
  <path fill-rule="evenodd" clip-rule="evenodd" d="M117.058 5.54507C117.462 1.54619 113.17 -1.34851 109.581 0.647907V0.649926L2.59472 60.1386L2.27981 60.3283C-1.17606 62.569 -0.614881 67.9002 3.36583 69.3072L36.4469 80.9909L36.7638 81.0918C37.997 81.4374 39.3154 81.3012 40.4519 80.7109C41.5884 80.1205 42.4579 79.1201 42.8843 77.9125L42.9852 77.5976C43.3321 76.3642 43.1967 75.0449 42.6067 73.9076C42.0166 72.7702 41.0161 71.8999 39.8079 71.4731L17.2822 63.5178L88.3091 24.0232L47.6106 72.5241L47.3683 72.837C46.7575 73.693 46.4293 74.7185 46.4297 75.7701V108.007L46.4398 108.338C46.5238 109.617 47.091 110.816 48.0263 111.691C48.9616 112.567 50.195 113.054 51.4762 113.054L51.8073 113.044C53.0858 112.96 54.2844 112.393 55.1601 111.457C56.0358 110.522 56.523 109.289 56.5228 108.007V77.607L104.423 20.5217L93.0186 91.0719L68.7771 82.2021L68.4622 82.0971C67.2051 81.7281 65.8537 81.8624 64.6938 82.4717C63.5339 83.0809 62.6565 84.1174 62.247 85.362C61.8375 86.6065 61.928 87.9615 62.4994 89.1404C63.0709 90.3194 64.0785 91.2299 65.3091 91.6795L95.2896 102.655L95.5984 102.758C96.2857 102.96 97.0081 103.014 97.7177 102.915C98.4272 102.817 99.1077 102.568 99.7138 102.186C100.32 101.804 100.838 101.298 101.233 100.7C101.628 100.103 101.891 99.4277 102.006 98.7204L117.016 5.86402L117.058 5.54507Z" fill="url(#paint0_linear_2063_786)" fill-opacity="0.1"/>
  <defs>
    <linearGradient id="paint0_linear_2063_786" x1="58.5424" y1="0" x2="58.5424" y2="113.054" gradientUnits="userSpaceOnUse">
      <stop stop-color="white"/>
      <stop offset="1" stop-color="white" stop-opacity="0"/>
    </linearGradient>
  </defs>
</svg>