<svg xmlns="http://www.w3.org/2000/svg" width="119" height="113" viewBox="0 0 119 113" fill="none">
  <path d="M68.1773 91.4798L83.6837 39.6378H109.218C109.191 39.696 109.197 39.7964 109.162 39.8386L68.1773 91.4825V91.4798ZM9.07969 39.6378H32.7525L48.7896 90.4185L9.07969 39.6378ZM22.4924 13.3486L30.7142 31.9124H11.9075L22.4871 13.3512L22.4924 13.3486ZM75.7099 39.6378L58.7172 96.4675L40.7633 39.638H75.7073L75.7099 39.6378ZM36.6497 26.4261L28.808 8.72811H49.2886L36.6497 26.426V26.4261ZM59.1264 8.72811L75.6862 31.9151H42.1493L58.7091 8.72811H59.1264ZM68.5468 8.72811H89.0196L81.186 26.426L68.5469 8.72811H68.5468ZM105.992 31.9151H87.1239L95.4092 13.1955L105.991 31.915L105.992 31.9151ZM115.948 33.9797L100.315 6.29639C98.5724 3.22845 94.7862 1 91.2984 1H26.7274C23.2317 1 19.4323 3.22315 17.6976 6.28058L2.17017 33.5547C0.350957 36.7494 0.683633 41.3435 2.95421 44.2611L53.463 108.845C53.9039 109.389 54.4768 109.727 55.0207 110.12L55.1791 110.622L55.5039 110.516C56.5283 111.124 57.6399 111.533 58.8307 111.533C60.0319 111.533 61.1514 111.11 62.1891 110.479L62.4664 110.567L62.5931 110.149C63.1475 109.764 63.7336 109.418 64.1772 108.861L115.119 44.6756C117.397 41.7897 117.754 37.1956 115.948 33.9771L115.948 33.9797Z" fill="url(#paint0_linear_2063_800)" fill-opacity="0.1"/>
  <path d="M84.056 40.1378H108.287L69.3997 89.1379L84.056 40.1378ZM75.0385 40.138L58.704 94.7661L41.4456 40.138H75.0385ZM36.7519 25.4225L29.5764 9.22811H48.3171L36.7519 25.4225ZM81.0835 25.4222L69.5184 9.22811H88.2515L81.0835 25.4222ZM95.4636 14.3079L105.134 31.4151H87.892L95.4636 14.3079ZM58.8307 112.033C60.0731 112.033 61.2163 111.622 62.2521 111.023L62.3164 111.044L62.798 111.195L62.9448 110.712L63.0205 110.463C63.0579 110.437 63.0959 110.412 63.1345 110.385C63.602 110.07 64.146 109.703 64.5683 109.172L64.5688 109.172L115.511 44.9864L115.511 44.9854C117.916 41.9399 118.289 37.1268 116.384 33.7325L116.383 33.7328L100.75 6.05053L100.75 6.04946C98.92 2.82794 94.9693 0.5 91.2984 0.5H26.7274C23.0505 0.5 19.0858 2.82093 17.263 6.03342C17.2629 6.03357 17.2628 6.03371 17.2628 6.03385L1.73568 33.3073C-0.184088 36.6786 0.16524 41.4916 2.55962 44.5682L2.56035 44.5691L53.0691 109.153L53.0691 109.153L53.0746 109.16C53.4757 109.655 53.9861 110.009 54.4285 110.315C54.485 110.354 54.5404 110.393 54.5943 110.431L54.7023 110.773L54.8542 111.253L55.3337 111.097L55.4467 111.061C56.4695 111.636 57.6023 112.033 58.8307 112.033ZM32.3861 40.1378L47.4801 87.9322L10.1054 40.1378H32.3861ZM12.7681 31.4124L22.4347 14.453L29.9459 31.4124H12.7681ZM58.9178 9.29631L74.7147 31.4151H43.1208L58.9178 9.29631Z" stroke="url(#paint1_linear_2063_800)" stroke-opacity="0.1"/>
  <defs>
    <linearGradient id="paint0_linear_2063_800" x1="59.0486" y1="1" x2="59.0486" y2="111.533" gradientUnits="userSpaceOnUse">
      <stop stop-color="white"/>
      <stop offset="1" stop-color="white" stop-opacity="0"/>
    </linearGradient>
    <linearGradient id="paint1_linear_2063_800" x1="59.0486" y1="1" x2="59.0486" y2="111.533" gradientUnits="userSpaceOnUse">
      <stop stop-color="white"/>
      <stop offset="1" stop-color="white" stop-opacity="0"/>
    </linearGradient>
  </defs>
</svg>