<svg xmlns="http://www.w3.org/2000/svg" width="34" height="34" viewBox="0 0 34 34" fill="none">
<path d="M23.5237 22.4677C24.0824 21.4987 23.7729 20.7545 22.7835 20.0099C21.6204 19.1345 20.4837 18.5457 19.6664 19.4889C19.6664 19.4889 18.799 20.5179 16.2465 18.11C13.2784 15.2904 14.5241 14.2904 14.5241 14.2904C15.5564 13.2562 14.9002 12.4847 14.0344 11.3162C13.1687 10.1478 12.2942 9.77793 11.0388 10.7829C8.61947 12.7195 12.0308 17.2668 13.7556 19.0349L13.7555 19.0351C13.7555 19.0351 16.3783 21.7386 18.0288 22.6386L18.9118 23.1306C20.1781 23.7782 21.6006 24.0747 22.602 23.4733C22.602 23.4734 23.0847 23.2259 23.5237 22.4677Z" fill="white" stroke="white" stroke-width="0.85"/>
<circle cx="17" cy="17" r="15.47" stroke="white" stroke-width="3.06"/>
</svg>