<svg width="34" height="34" viewBox="0 0 34 34" fill="none" xmlns="http://www.w3.org/2000/svg">
<g id="&#230;&#150;&#176;&#230;&#181;&#170;&#229;&#190;&#174;&#229;&#141;&#154; 1">
<path id="Vector" d="M26.0041 17.168C26.5081 17.56 26.8628 18.0313 27.0681 18.582C27.2734 19.1326 27.3574 19.7066 27.3201 20.304C27.2828 20.9013 27.1521 21.4986 26.9281 22.096C26.7041 22.6933 26.4148 23.2346 26.0601 23.72C25.4254 24.5973 24.7068 25.344 23.9041 25.96C23.1014 26.576 22.2708 27.0893 21.4121 27.5C20.5534 27.9106 19.6901 28.2326 18.8221 28.466C17.9541 28.6993 17.1374 28.872 16.3721 28.984C15.6068 29.096 14.9208 29.166 14.3141 29.194C13.7074 29.222 13.2361 29.236 12.9001 29.236C12.5641 29.236 12.1161 29.2126 11.5561 29.166C10.9961 29.1193 10.3754 29.026 9.69409 28.886C9.01276 28.746 8.29876 28.55 7.55209 28.298C6.80543 28.046 6.07743 27.7146 5.36809 27.304C4.65876 26.8933 3.98209 26.3893 3.33809 25.792C2.69409 25.1946 2.14809 24.476 1.70009 23.636C1.40143 23.0946 1.20076 22.516 1.09809 21.9C0.995425 21.284 0.944092 20.5 0.944092 19.548C0.944092 19.1373 1.01409 18.6706 1.15409 18.148C1.29409 17.6253 1.54143 17.0466 1.89609 16.412C2.25076 15.7773 2.73609 15.0866 3.35209 14.34C3.96809 13.5933 4.75209 12.772 5.70409 11.876C6.63743 10.9986 7.60343 10.2193 8.60209 9.53797C9.60076 8.85664 10.6694 8.3293 11.8081 7.95597C12.3308 7.7693 12.9094 7.66664 13.5441 7.64797C14.1788 7.6293 14.7014 7.73197 15.1121 7.95597C15.2988 8.1613 15.4761 8.3713 15.6441 8.58597C15.8121 8.80063 15.9241 9.06664 15.9801 9.38397C16.0361 9.6453 16.0408 9.8973 15.9941 10.14C15.9474 10.3826 15.8961 10.6253 15.8401 10.868C15.7841 11.1106 15.7374 11.344 15.7001 11.568C15.6628 11.792 15.6814 11.9973 15.7561 12.184C16.0734 12.2213 16.3814 12.2073 16.6801 12.142C16.9788 12.0766 17.2681 11.9926 17.5481 11.89C17.8281 11.7873 18.1128 11.68 18.4021 11.568C18.6914 11.456 18.9948 11.372 19.3121 11.316C19.8161 11.2226 20.3154 11.1806 20.8101 11.19C21.3048 11.1993 21.7528 11.2693 22.1541 11.4C22.5554 11.5306 22.8868 11.7313 23.1481 12.002C23.4094 12.2726 23.5681 12.6226 23.6241 13.052C23.6614 13.3133 23.6428 13.556 23.5681 13.78C23.4934 14.004 23.4141 14.214 23.3301 14.41C23.2461 14.606 23.1808 14.8066 23.1341 15.012C23.0874 15.2173 23.1014 15.432 23.1761 15.656C23.2321 15.7866 23.3674 15.908 23.5821 16.02C23.7968 16.132 24.0441 16.244 24.3241 16.356C24.6041 16.468 24.8981 16.5893 25.2061 16.72C25.5141 16.8506 25.7801 17 26.0041 17.168ZM18.9481 25.876C19.4334 25.5773 19.9234 25.1666 20.4181 24.644C20.9128 24.1213 21.3141 23.538 21.6221 22.894C21.9301 22.25 22.1028 21.5593 22.1401 20.822C22.1774 20.0846 21.9908 19.3426 21.5801 18.596C21.2254 17.98 20.7914 17.4573 20.2781 17.028C19.7648 16.5986 19.1908 16.258 18.5561 16.006C17.9214 15.754 17.2448 15.572 16.5261 15.46C15.8074 15.348 15.0748 15.292 14.3281 15.292C12.8908 15.292 11.6168 15.4413 10.5061 15.74C9.39543 16.0386 8.43409 16.4306 7.62209 16.916C6.81009 17.4013 6.15209 17.952 5.64809 18.568C5.14409 19.184 4.78943 19.8093 4.58409 20.444C4.37876 21.06 4.31809 21.6713 4.40209 22.278C4.48609 22.8846 4.67743 23.4586 4.97609 24C5.27476 24.5413 5.66209 25.0266 6.13809 25.456C6.61409 25.8853 7.14143 26.2306 7.72009 26.492C8.78409 26.9586 9.87143 27.2526 10.9821 27.374C12.0928 27.4953 13.1521 27.5 14.1601 27.388C15.1681 27.276 16.0874 27.08 16.9181 26.8C17.7488 26.52 18.4254 26.212 18.9481 25.876ZM15.2801 17.028C15.6534 17.1773 16.0081 17.3453 16.3441 17.532C16.6801 17.7186 16.9788 17.9706 17.2401 18.288C17.4268 18.512 17.5901 18.792 17.7301 19.128C17.8701 19.464 17.9681 19.8233 18.0241 20.206C18.0801 20.5886 18.0941 20.976 18.0661 21.368C18.0381 21.76 17.9494 22.1146 17.8001 22.432C17.6508 22.768 17.4688 23.1086 17.2541 23.454C17.0394 23.7993 16.7781 24.1213 16.4701 24.42C16.1621 24.7186 15.7934 24.9846 15.3641 25.218C14.9348 25.4513 14.4121 25.624 13.7961 25.736C12.6761 25.9413 11.6028 25.8386 10.5761 25.428C9.54943 25.0173 8.74676 24.336 8.16809 23.384C7.94409 22.656 7.82276 22.012 7.80409 21.452C7.78543 20.892 7.93476 20.2853 8.25209 19.632C8.49476 19.128 8.86343 18.6566 9.35809 18.218C9.85276 17.7793 10.4221 17.4246 11.0661 17.154C11.7101 16.8833 12.3961 16.7246 13.1241 16.678C13.8521 16.6313 14.5708 16.748 15.2801 17.028ZM10.8281 23.916C11.5188 23.972 12.0461 23.804 12.4101 23.412C12.7741 23.02 12.9701 22.5813 12.9981 22.096C13.0261 21.6106 12.8861 21.1766 12.5781 20.794C12.2701 20.4113 11.7894 20.2573 11.1361 20.332C10.6321 20.388 10.2401 20.6026 9.96009 20.976C9.68009 21.3493 9.52143 21.746 9.48409 22.166C9.44676 22.586 9.53543 22.9733 9.75009 23.328C9.96476 23.6826 10.3241 23.8786 10.8281 23.916ZM22.2801 3.16797C23.6428 3.16797 24.9168 3.34997 26.1021 3.71397C27.2874 4.07797 28.3234 4.6053 29.2101 5.29597C30.0968 5.98664 30.7921 6.82664 31.2961 7.81597C31.8001 8.8053 32.0521 9.9253 32.0521 11.176C32.0521 11.792 31.9028 12.254 31.6041 12.562C31.3054 12.87 30.9834 13.0286 30.6381 13.038C30.2928 13.0473 29.9708 12.9166 29.6721 12.646C29.3734 12.3753 29.2241 11.96 29.2241 11.4C29.2241 10.6533 29.0188 9.94397 28.6081 9.27197C28.1974 8.59997 27.6561 8.01197 26.9841 7.50797C26.3121 7.00397 25.5421 6.6073 24.6741 6.31797C23.8061 6.02864 22.9241 5.88397 22.0281 5.88397C21.4494 5.88397 21.0201 5.74397 20.7401 5.46397C20.4601 5.18397 20.3294 4.8713 20.3481 4.52597C20.3668 4.18064 20.5394 3.86797 20.8661 3.58797C21.1928 3.30797 21.6641 3.16797 22.2801 3.16797ZM22.2801 7.64797C24.0161 7.64797 25.3321 8.0913 26.2281 8.97797C27.1241 9.86463 27.5721 11.204 27.5721 12.996C27.5721 13.556 27.4788 13.9526 27.2921 14.186C27.1054 14.4193 26.9001 14.522 26.6761 14.494C26.4521 14.466 26.2468 14.3306 26.0601 14.088C25.8734 13.8453 25.7801 13.5186 25.7801 13.108C25.7801 12.0066 25.4628 11.1293 24.8281 10.476C24.1934 9.82263 23.3441 9.49597 22.2801 9.49597C21.9254 9.49597 21.6641 9.39797 21.4961 9.20197C21.3281 9.00597 21.2441 8.79597 21.2441 8.57197C21.2441 8.34797 21.3328 8.13797 21.5101 7.94197C21.6874 7.74597 21.9441 7.64797 22.2801 7.64797Z" fill="#333333"/>
</g>
</svg>
