<svg width="34" height="34" viewBox="0 0 34 34" fill="none" xmlns="http://www.w3.org/2000/svg">
<g id="&#229;&#190;&#174;&#228;&#191;&#161;&#229;&#133;&#172;&#228;&#188;&#151;&#229;&#143;&#183; 1">
<path id="Vector" d="M26.6313 19.3082C25.8667 19.3082 25.2448 18.6617 25.2448 17.8576C25.2448 17.059 25.8667 16.4123 26.6313 16.4123C27.3959 16.4123 28.0178 17.059 28.0178 17.8576C28.0178 18.6617 27.3959 19.3082 26.6313 19.3082ZM19.4979 19.3082C18.7333 19.3082 18.1105 18.6617 18.1105 17.8576C18.1105 17.059 18.7334 16.4123 19.4979 16.4123C20.2625 16.4123 20.8844 17.059 20.8844 17.8576C20.8844 18.6617 20.2625 19.3082 19.4979 19.3082ZM33 21.3695C33 16.6823 28.9604 12.8463 23.8396 12.5155C23.6 12.5006 23.3604 12.4921 23.1198 12.4921C17.6625 12.4921 13.2396 16.4676 13.2396 21.3695C13.2396 22.1086 13.3427 22.8244 13.5334 23.5083C14.5948 27.3784 18.4844 30.2468 23.1198 30.2468C24.6979 30.2468 26.1865 29.9161 27.5063 29.3237L29.724 30.8893C29.724 30.8893 30.3156 31.3158 30.2573 30.4946L29.6313 28.0422C31.698 26.4181 33 24.0304 33 21.3695ZM7.99166 11.3849C7.22708 11.3849 6.60418 10.7383 6.60418 9.94064C6.60418 9.13657 7.22708 8.48998 7.99166 8.48998C8.76042 8.48998 9.37815 9.13657 9.37815 9.94064C9.37818 10.7383 8.76045 11.3849 7.99166 11.3849ZM16.725 8.49002C17.4896 8.49002 18.1105 9.1366 18.1105 9.94068C18.1105 10.7383 17.4896 11.385 16.725 11.385C15.9563 11.385 15.3375 10.7383 15.3375 9.94068C15.3375 9.13657 15.9563 8.49002 16.725 8.49002ZM23.1198 11.7529C23.3334 11.7529 23.5417 11.7614 23.7511 11.772C22.9375 6.80955 18.1823 3 12.4354 3C6.12083 3 1 7.6041 1 13.277C1 16.4399 2.59063 19.2679 5.08856 21.1526L4.24377 24.4452C4.24377 24.4452 3.95522 25.5376 5.04903 25.0461L8.20001 22.8244C9.51149 23.2977 10.9375 23.5593 12.4354 23.5593C12.5646 23.5593 12.6886 23.5487 12.8125 23.5487C12.6313 22.8468 12.5333 22.1172 12.5333 21.3695C12.5333 16.0677 17.2844 11.7529 23.1198 11.7529Z" fill="#333333"/>
</g>
</svg>
